<?xml version="1.0" standalone="no"?>
<!DOCTYPE svg PUBLIC "-//W3C//DTD SVG 20010904//EN"
 "http://www.w3.org/TR/2001/REC-SVG-20010904/DTD/svg10.dtd">
<svg version="1.0" xmlns="http://www.w3.org/2000/svg"
 width="3008.000000pt" height="2000.000000pt" viewBox="0 0 3008.000000 2000.000000"
 preserveAspectRatio="xMidYMid meet">
<metadata>
Created by potrace 1.15, written by Peter Selinger 2001-2017
</metadata>
<g transform="translate(0.000000,2000.000000) scale(0.100000,-0.100000)"
fill="#000000" stroke="none">
<path d="M0 18345 c0 -910 3 -1655 6 -1655 3 0 14 5 25 10 24 14 26 -6 2 -32
-9 -10 -13 -21 -10 -25 4 -3 18 5 31 20 19 20 24 37 24 77 0 53 12 73 39 63 7
-3 13 1 13 8 0 11 3 11 10 -1 9 -13 11 -13 21 0 8 11 9 7 4 -17 -6 -28 -4 -33
12 -33 25 0 39 11 47 38 6 19 9 20 21 8 7 -7 15 -31 18 -52 l4 -39 1 43 c1 23
7 42 12 42 6 0 11 -19 12 -42 l1 -43 4 40 c4 36 23 76 23 47 0 -6 7 -9 17 -5
13 5 15 2 11 -15 -5 -17 -2 -22 12 -22 14 0 17 5 13 21 -5 18 -3 20 15 14 17
-5 21 -3 16 9 -5 12 0 16 20 16 19 0 26 5 26 19 0 18 23 35 33 25 10 -10 -6
-44 -20 -44 -11 0 -13 -7 -9 -25 4 -14 2 -25 -4 -25 -5 0 -10 8 -10 17 0 14
-3 14 -12 5 -10 -10 -10 -15 2 -22 8 -5 11 -12 7 -16 -3 -4 -13 -2 -21 5 -11
10 -14 7 -12 -14 1 -27 10 -32 22 -13 5 7 10 4 15 -10 5 -12 15 -22 24 -22 20
0 19 9 -5 28 l-21 17 22 13 c19 12 20 12 14 -10 -6 -18 0 -14 28 16 22 23 35
47 34 59 -2 19 3 21 48 18 28 -1 52 -7 53 -12 5 -12 82 -12 82 1 0 6 8 18 18
28 16 16 35 18 127 18 92 -1 109 2 119 16 8 14 7 20 -8 31 -10 8 -17 20 -14
27 3 10 10 8 26 -8 25 -25 42 -28 42 -8 0 8 -10 18 -21 21 -35 11 -2 25 59 25
32 0 52 4 52 11 0 9 -23 10 -80 5 l-80 -6 0 25 c0 18 -5 25 -20 25 -12 0 -20
7 -21 18 -2 33 3 57 15 64 8 6 8 8 -1 8 -6 0 -20 16 -32 35 -18 31 -18 34 -3
33 9 -1 25 0 35 0 16 2 16 4 2 26 -16 24 -15 24 6 19 19 -5 21 -3 17 15 -4 14
-2 22 6 22 7 0 12 -10 12 -22 -1 -22 3 -23 73 -23 53 0 76 4 79 13 3 10 -8 13
-44 12 -65 -2 -74 -1 -74 8 0 4 44 8 98 8 53 1 91 0 84 -3 -6 -3 -12 -11 -12
-18 0 -10 5 -11 25 -2 32 15 41 37 15 37 -11 0 -20 5 -20 10 0 6 5 10 11 10 6
0 17 7 26 15 16 17 49 16 46 -1 -1 -5 16 -9 37 -9 21 0 38 2 38 5 -2 25 5 40
17 40 12 0 14 -4 5 -19 -13 -25 8 -42 22 -18 5 9 15 14 23 11 9 -4 15 0 15 8
0 7 11 15 25 16 18 1 23 -2 19 -13 -4 -10 0 -15 15 -15 15 0 21 5 19 17 -2 11
4 18 17 20 18 3 18 2 2 -5 -16 -7 -17 -10 -5 -19 8 -7 19 -8 28 -3 9 5 19 5
26 -1 9 -7 16 -4 24 10 9 18 8 21 -10 21 -12 0 -18 5 -15 10 13 21 41 9 55
-22 12 -28 15 -30 18 -13 3 11 9 23 16 27 7 5 6 8 -5 8 -26 0 -51 24 -43 43 7
18 34 24 34 7 0 -5 -5 -10 -12 -10 -9 0 -9 -3 -1 -11 17 -17 95 -19 117 -3 17
11 21 11 32 -4 9 -13 23 -16 58 -14 40 4 46 7 41 22 -3 10 -1 22 6 25 13 8 31
-14 22 -28 -3 -5 9 -1 26 8 17 9 36 13 42 10 5 -4 9 -3 8 2 -1 4 -1 15 0 23 1
12 3 12 10 2 13 -22 91 3 91 28 0 28 12 25 48 -10 38 -36 43 -36 60 -9 13 20
14 20 27 3 12 -17 13 -16 8 9 -7 34 10 35 25 2 6 -14 19 -25 29 -25 15 0 14 3
-5 16 -38 27 -26 35 43 28 46 -5 65 -3 65 5 0 6 -10 11 -22 11 -29 1 -62 25
-53 39 11 19 47 12 52 -9 7 -25 23 -26 24 -2 0 13 2 12 9 -5 5 -13 18 -23 29
-23 14 0 19 5 15 14 -3 8 -1 23 5 33 9 16 11 14 12 -12 1 -28 1 -29 8 -6 8 29
29 39 37 17 9 -22 24 -10 24 20 0 17 6 24 19 24 22 0 34 -23 19 -38 -6 -6 4
-11 32 -14 23 -2 44 0 46 4 3 4 12 8 20 8 9 0 24 10 34 22 17 21 78 32 90 16
8 -9 82 -12 108 -4 12 4 22 14 22 22 0 8 7 14 15 14 8 0 15 -7 15 -15 0 -8 5
-15 10 -15 7 0 7 7 -1 21 -14 27 4 50 23 31 18 -18 28 -15 38 11 7 17 9 18 9
5 1 -21 11 -22 45 -7 20 9 29 9 41 -1 11 -9 19 -10 23 -3 4 6 17 13 30 17 12
4 22 12 22 17 0 5 9 9 19 9 11 0 23 5 26 10 8 12 35 13 35 1 0 -5 -10 -12 -22
-16 -22 -7 -22 -7 -3 -12 13 -4 27 4 44 23 15 18 26 24 29 16 5 -17 22 -15 22
3 0 8 -4 15 -9 15 -5 0 -11 7 -14 14 -4 10 -1 13 8 10 9 -4 15 4 18 23 3 17 3
14 2 -8 l-3 -36 45 11 c35 7 46 7 53 -3 6 -11 10 -10 17 4 8 14 21 16 71 13
54 -3 62 -1 62 15 0 16 2 16 22 -3 12 -11 25 -20 30 -20 13 0 9 20 -7 36 -21
22 -19 31 11 37 21 4 25 1 23 -17 -3 -45 -1 -47 49 -44 44 3 47 5 44 28 l-2
25 18 -28 c10 -15 22 -24 25 -21 4 4 2 13 -5 21 -8 10 -8 17 0 25 8 8 13 7 18
-6 5 -13 9 -15 15 -5 5 9 40 13 123 12 96 0 116 3 116 15 0 12 10 14 55 9 44
-4 55 -3 55 9 0 19 59 19 66 -1 4 -9 19 -15 37 -15 30 0 30 0 11 21 l-19 21
85 -2 c114 -3 120 -2 114 14 -4 9 5 15 25 18 30 4 43 -6 19 -14 -10 -4 -9 -8
2 -19 20 -19 110 -14 110 7 0 10 -12 14 -40 14 -43 0 -54 14 -17 24 31 8 150
7 163 -2 6 -4 14 -14 17 -22 4 -12 6 -11 6 3 1 9 8 17 16 17 7 0 19 8 25 18 8
12 13 13 16 5 3 -7 14 -13 24 -13 10 0 21 6 23 13 4 10 6 10 6 0 1 -18 31 -16
31 1 0 20 35 29 59 17 25 -14 42 -14 18 0 -19 11 -14 29 7 29 8 0 16 -10 19
-21 4 -15 11 -20 21 -16 10 4 16 1 16 -8 0 -8 5 -15 11 -15 7 0 9 11 6 29 -6
29 -5 29 44 33 28 1 53 -1 56 -5 3 -5 13 -1 23 8 16 15 17 14 13 -10 -5 -22
-2 -25 26 -25 17 0 31 5 31 11 0 5 4 8 9 5 5 -4 11 -1 13 6 3 9 34 12 114 10
60 -1 124 2 143 6 36 8 56 33 24 30 -33 -2 -53 2 -53 12 0 6 18 10 39 10 28 0
41 -5 45 -17 5 -13 9 -14 15 -5 4 7 22 16 39 21 25 8 32 7 32 -4 0 -8 -5 -17
-10 -20 -19 -12 -10 -22 20 -22 17 0 30 4 30 9 0 4 -7 8 -15 8 -23 0 -18 17 8
24 38 10 149 7 142 -4 -3 -5 1 -10 9 -10 9 0 15 6 13 13 -1 7 8 12 21 11 12 0
22 5 22 13 0 7 5 13 10 13 6 0 10 -6 10 -14 0 -21 121 -27 137 -6 9 10 12 11
13 3 0 -15 30 -18 30 -3 0 16 27 12 34 -5 7 -20 79 -20 96 0 10 12 16 13 26 4
11 -9 14 -8 14 5 0 10 -9 16 -25 16 -14 0 -25 -5 -25 -11 0 -5 -5 -7 -11 -4
-14 9 -6 30 12 30 8 1 34 4 59 8 64 10 260 14 260 6 0 -4 9 -5 20 -2 20 5 28
23 10 23 -5 0 -10 4 -10 9 0 15 53 5 99 -18 42 -22 91 -22 91 -1 0 6 7 10 15
10 8 0 15 -7 15 -15 0 -18 1 -18 37 -4 37 14 203 22 203 9 0 -6 18 -10 40 -10
73 0 41 18 -45 25 -47 4 -88 11 -91 16 -3 5 7 9 23 9 15 0 40 7 55 14 24 13
28 13 28 0 0 -8 5 -14 10 -14 6 0 10 7 10 15 0 8 5 15 10 15 6 0 10 -7 10 -15
0 -24 15 -17 28 13 11 26 11 26 7 2 -3 -21 0 -25 20 -26 21 -2 24 1 19 22 -9
37 3 28 24 -16 l18 -41 20 22 c19 21 19 22 -3 36 -13 9 -23 19 -23 24 0 15 30
10 37 -6 3 -9 15 -15 26 -13 11 2 22 -3 24 -9 3 -7 0 -13 -6 -13 -6 0 -11 -8
-11 -17 1 -16 1 -17 10 -2 8 14 24 16 82 15 40 -2 65 -1 56 1 -10 3 -18 11
-18 18 0 19 41 23 68 7 20 -13 24 -12 40 5 9 11 22 18 28 16 7 -2 19 4 29 13
14 14 18 15 25 4 7 -11 70 -14 330 -15 285 0 321 2 317 16 -3 13 2 12 34 -4
23 -11 43 -15 51 -11 18 12 67 13 74 3 9 -16 84 -11 84 5 0 8 -8 16 -17 19
-10 2 8 2 40 -1 64 -5 83 14 20 21 -21 2 -14 3 16 1 30 -1 59 -8 64 -13 18
-18 37 -13 37 9 0 16 7 20 38 20 43 0 68 -13 58 -29 -5 -7 3 -11 23 -11 21 0
29 4 25 13 -7 20 100 27 418 27 l268 0 10 24 c12 32 17 34 75 26 l50 -6 -34
-10 c-38 -11 -54 -34 -24 -34 11 0 25 -6 32 -12 11 -10 14 -10 18 0 3 7 22 12
44 12 32 0 39 3 39 20 0 14 -7 20 -22 21 -13 0 -17 3 -10 6 7 3 29 2 49 -2 31
-6 33 -8 18 -19 -28 -20 -9 -38 33 -31 59 10 67 14 54 27 -9 9 -6 14 11 23 17
8 25 8 35 -2 7 -7 11 -17 7 -22 -10 -17 16 -24 93 -24 49 0 77 4 80 11 2 7 15
12 28 12 17 0 24 6 24 20 0 14 7 20 23 20 13 0 27 -4 33 -10 5 -5 24 -6 44 -1
62 14 313 14 344 0 22 -11 29 -10 36 1 6 10 39 12 164 7 115 -4 156 -2 157 6
0 7 4 3 9 -8 5 -11 9 -15 9 -9 1 7 12 14 26 16 18 4 25 1 26 -11 0 -10 2 -12
6 -3 7 17 254 17 271 0 9 -9 15 -9 24 0 7 7 35 12 62 11 40 -1 46 -3 26 -9
-17 -5 -6 -7 37 -6 35 0 63 4 63 9 0 4 6 6 12 5 7 -2 14 7 16 20 2 12 7 22 12
22 5 0 10 -10 12 -22 2 -13 9 -22 17 -20 7 1 45 3 84 3 40 1 78 6 85 11 9 8
11 7 6 -6 -7 -19 7 -21 24 -4 8 8 15 8 24 1 9 -7 38 -7 92 0 58 7 84 7 98 -2
26 -16 61 -14 55 3 -3 8 1 20 9 27 12 10 12 14 2 20 -8 6 -9 9 -2 9 20 0 36
-28 29 -50 -9 -27 10 -26 30 3 15 21 17 21 29 5 9 -12 26 -18 52 -17 29 0 34
2 20 8 -13 5 -16 10 -8 15 6 4 22 0 34 -8 39 -24 68 -29 68 -12 0 13 4 13 35
0 44 -18 45 -18 45 7 0 16 3 19 13 12 18 -15 49 -24 42 -13 -3 5 3 18 15 30
11 11 20 16 20 10 0 -14 27 -12 33 3 4 9 7 9 15 -1 5 -7 13 -12 18 -11 20 4
24 -2 14 -21 -8 -16 -8 -18 4 -14 8 3 16 14 19 25 6 23 39 25 57 4 7 -8 16
-12 21 -9 5 2 11 -7 15 -21 6 -25 24 -35 24 -14 0 8 4 8 14 0 12 -10 13 -8 8
11 -5 21 -4 22 12 9 24 -20 30 -7 11 23 -10 14 -13 26 -8 26 5 0 19 -19 31
-42 12 -24 22 -37 22 -30 0 10 13 13 43 11 24 -2 48 0 54 4 6 4 18 4 27 1 11
-4 16 -1 16 11 0 9 -9 19 -20 22 -11 3 -20 9 -20 14 0 14 11 11 32 -8 10 -9
21 -13 25 -9 4 4 1 11 -7 16 -13 8 -12 10 3 10 11 0 17 -8 17 -22 0 -13 4 -29
9 -37 7 -11 13 -7 24 20 9 19 16 28 16 22 1 -18 21 -16 21 2 0 8 5 15 10 15
15 0 12 -58 -2 -63 -7 -2 -9 -8 -5 -13 4 -5 12 -3 16 4 5 8 30 14 60 14 61 2
71 11 39 38 l-23 19 36 1 c28 0 44 -8 72 -37 24 -24 37 -31 37 -21 0 9 8 26
19 39 16 20 21 21 35 10 24 -20 19 -31 -14 -31 -33 0 -38 -11 -14 -31 14 -11
19 -10 34 9 23 28 46 28 54 0 5 -19 8 -21 16 -8 8 12 12 12 18 2 5 -7 16 -10
25 -6 21 8 22 24 2 24 -8 0 -15 4 -15 9 0 5 -10 12 -22 16 -62 21 -64 23 -25
24 25 1 40 -4 43 -14 4 -8 12 -15 20 -15 17 0 18 17 2 23 -7 3 6 6 29 6 23 1
45 -3 48 -9 3 -5 -2 -10 -12 -10 -10 0 -25 -5 -33 -10 -13 -9 -13 -11 0 -20
20 -13 110 -13 110 0 0 6 -10 10 -22 10 -19 0 -20 2 -8 10 22 14 28 12 35 -9
4 -12 12 -18 21 -14 7 3 14 0 14 -6 0 -6 7 -11 15 -11 9 0 18 -7 21 -15 4 -8
12 -15 20 -15 21 0 17 17 -6 23 -11 3 -20 10 -20 17 0 6 4 8 10 5 6 -4 10 6
11 22 1 27 1 27 12 -7 l10 -35 7 30 7 30 10 -35 c11 -33 11 -34 12 -7 1 25 3
27 21 17 11 -6 25 -8 30 -5 5 3 18 0 29 -7 15 -9 25 -9 46 0 14 7 43 11 63 11
l37 -1 -30 -8 c-28 -7 -28 -8 12 -9 24 -1 44 4 47 12 4 6 4 2 2 -10 -3 -17 1
-23 15 -23 21 0 27 36 7 42 -9 3 -8 9 4 21 21 21 32 22 24 1 -7 -19 11 -57 24
-49 5 3 43 6 84 6 65 1 76 3 76 18 0 9 -5 22 -10 27 -7 7 -6 11 5 11 8 0 15
-5 15 -12 0 -14 23 -65 30 -65 7 0 30 51 30 67 0 9 16 13 50 13 41 0 48 -3 43
-16 -5 -13 -7 -13 -14 -2 -7 11 -11 10 -19 -2 -9 -13 -11 -13 -20 0 -9 13 -11
13 -20 0 -5 -8 -10 -17 -10 -20 0 -3 5 -12 10 -20 9 -13 11 -13 20 0 9 13 11
13 20 0 8 -13 11 -13 22 2 19 24 58 33 58 14 0 -12 10 -16 40 -16 22 0 40 5
40 10 0 6 7 10 17 10 15 0 15 1 -1 18 -15 18 -14 19 19 20 35 1 48 -14 20 -24
-21 -9 -19 -17 9 -30 18 -8 28 -8 35 -1 8 8 11 8 11 0 0 -6 11 -8 25 -5 31 5
35 42 6 42 -11 0 -23 5 -26 10 -4 6 23 10 74 10 79 0 106 -12 56 -24 -14 -4
-25 -11 -25 -16 0 -5 11 -12 25 -16 14 -3 25 -11 26 -18 0 -6 4 -2 9 9 4 11 6
30 3 43 -5 20 -1 22 31 22 25 0 36 -4 36 -15 0 -9 -6 -12 -15 -9 -10 4 -15 0
-15 -14 0 -17 5 -20 28 -18 15 2 44 4 65 5 41 1 49 15 15 26 -44 13 31 25 150
24 110 -1 112 -2 112 -24 0 -25 17 -35 61 -35 26 0 28 2 19 25 -9 23 -7 25 20
25 27 0 29 -2 20 -25 -9 -23 -7 -25 18 -25 16 0 33 5 40 12 7 7 12 8 12 2 0
-6 24 -11 57 -11 32 0 47 1 33 3 -14 3 -40 7 -57 10 -18 3 -33 9 -33 13 0 11
102 1 117 -11 6 -5 24 -11 39 -14 16 -3 32 -11 36 -17 4 -7 8 7 8 31 l0 42
143 -2 c78 0 126 -3 107 -5 -76 -7 -100 -14 -100 -28 0 -18 23 -19 52 -4 15 8
22 8 28 0 9 -15 70 -24 70 -11 0 6 -7 10 -16 10 -8 0 -12 5 -8 11 3 6 17 8 30
5 17 -5 22 -3 18 7 -3 10 13 13 73 12 l78 0 -2 -27 c-2 -29 11 -38 21 -15 5
10 7 10 12 0 3 -7 15 -13 25 -13 14 0 18 -4 13 -12 -6 -10 -3 -9 8 0 9 8 14
20 11 28 -3 8 0 21 7 29 9 11 16 12 31 2 23 -14 25 -32 3 -23 -11 4 -14 1 -12
-10 2 -13 18 -17 81 -18 59 -1 76 2 72 12 -3 9 3 10 20 6 14 -3 25 -3 25 1 0
9 -23 31 -40 38 -12 4 -12 6 2 6 9 1 23 -6 32 -14 8 -8 19 -15 25 -15 6 0 15
-9 21 -20 12 -22 40 -27 40 -8 0 9 3 9 12 0 20 -20 28 -14 28 23 0 19 5 35 10
35 6 0 10 -5 10 -12 0 -9 3 -9 12 0 14 14 48 16 48 3 0 -5 -13 -14 -30 -21
-16 -7 -30 -18 -30 -25 0 -15 25 -26 43 -20 28 11 184 21 204 14 19 -7 23 -4
29 24 l7 32 17 -40 17 -40 8 35 c7 29 9 31 12 13 6 -30 9 -29 43 9 16 17 33
28 37 24 5 -5 2 -11 -5 -13 -10 -4 -10 -8 0 -21 7 -9 8 -13 3 -10 -6 4 -17 3
-25 -3 -11 -6 0 -9 32 -9 38 0 46 3 42 15 -4 8 -1 15 5 15 6 0 11 -6 11 -14 0
-20 27 -28 34 -9 6 14 9 13 31 -1 21 -14 25 -14 25 -2 0 8 4 18 10 21 6 3 7
-1 4 -9 -9 -23 81 -23 94 0 17 30 123 57 137 34 4 -6 -10 -10 -34 -10 -23 0
-41 -4 -41 -9 0 -5 -8 -8 -17 -7 -12 0 -19 -7 -21 -21 -4 -30 9 -29 48 3 28
24 32 25 48 11 28 -25 122 -27 122 -2 0 8 5 15 10 15 6 0 10 -11 10 -25 0 -28
6 -31 25 -11 8 7 26 12 42 10 15 -2 66 -4 113 -5 47 -2 91 -7 99 -13 11 -8 13
-8 8 0 -4 7 7 11 31 12 28 0 32 -2 17 -7 -14 -6 -7 -8 25 -8 34 0 39 1 20 7
-14 3 156 6 377 6 222 -1 403 -4 403 -7 0 -16 57 -18 161 -4 130 17 319 20
319 5 0 -5 -7 -10 -16 -10 -8 0 -12 -5 -9 -10 3 -5 -1 -10 -9 -10 -9 0 -16 5
-16 10 0 6 -7 10 -15 10 -8 0 -15 -9 -15 -20 0 -16 7 -20 34 -20 19 0 38 5 41
10 3 6 24 10 46 10 21 0 39 3 39 8 0 4 9 13 20 20 17 10 25 10 43 -3 12 -8 29
-15 39 -15 10 0 18 -3 18 -8 0 -4 19 -13 41 -20 50 -16 71 -4 51 28 -11 17 -9
20 15 26 15 4 40 1 57 -6 42 -17 116 -25 116 -12 0 6 -19 13 -42 15 -38 3 -36
4 14 5 59 2 73 -4 58 -28 -6 -9 -25 -13 -59 -11 -28 1 -51 -2 -51 -7 0 -15 81
-18 165 -8 57 8 75 14 75 25 0 10 10 17 27 18 18 1 22 -1 12 -8 -10 -6 -11
-13 -4 -25 9 -15 40 -16 288 -15 199 2 277 -1 277 -9 0 -7 -8 -9 -22 -5 -17 6
-20 4 -15 -9 4 -10 1 -16 -8 -16 -8 0 -15 -5 -15 -11 0 -5 5 -7 10 -4 5 3 10
2 10 -4 0 -6 7 -8 15 -5 8 4 15 12 15 20 0 8 9 14 19 14 10 0 22 7 25 15 5 13
22 15 98 13 58 -2 93 -7 95 -15 2 -6 -4 -13 -14 -16 -10 -3 1 -5 25 -6 36 -1
42 2 42 19 0 19 7 20 118 20 106 0 118 -2 130 -20 16 -26 47 -25 66 2 14 20
16 20 22 3 5 -11 3 -20 -4 -23 -63 -21 149 -28 700 -24 l238 2 15 -30 c10 -20
23 -30 38 -30 17 0 19 2 7 10 -8 5 -11 12 -7 16 4 4 15 0 25 -9 13 -12 41 -16
127 -17 61 0 133 -2 162 -3 51 -2 52 -2 38 -24 -13 -19 -12 -22 2 -27 9 -4 19
-3 22 1 5 7 24 12 59 15 16 2 16 25 0 31 -8 4 -7 6 3 6 9 1 19 -8 22 -19 5
-21 27 -28 27 -8 0 6 9 3 21 -8 19 -17 38 -18 295 -16 244 3 274 2 274 -12 0
-20 19 -20 44 -1 25 19 126 21 126 2 0 -8 -14 -11 -45 -9 -40 4 -45 2 -45 -17
0 -25 18 -27 46 -6 24 18 34 19 34 2 0 -9 13 -13 38 -13 33 1 37 -2 40 -26 3
-22 8 -27 27 -26 14 1 21 7 18 15 -3 8 3 13 16 13 12 0 21 5 21 10 0 6 33 10
80 10 76 0 80 -1 80 -22 1 -19 3 -18 15 10 8 17 18 32 22 32 19 -1 38 -21 38
-42 0 -28 -1 -28 226 -35 152 -4 178 -3 192 11 20 20 51 21 44 2 -3 -8 0 -20
8 -26 8 -7 14 -7 17 -1 2 8 207 15 317 11 8 0 11 -6 7 -16 -6 -14 1 -16 46
-12 29 3 54 11 56 17 5 15 32 14 32 -2 0 -7 -12 -18 -27 -24 -28 -11 -28 -11
-4 -12 14 -1 33 7 44 17 19 16 19 16 13 -5 -8 -27 -1 -29 20 -8 20 20 45 20
37 -1 -4 -12 1 -15 23 -12 23 2 28 -1 26 -14 -2 -11 3 -18 13 -18 8 0 15 5 15
10 0 23 47 9 69 -21 15 -20 26 -27 34 -21 15 12 157 25 157 15 0 -5 81 -7 181
-5 132 2 185 0 196 -9 11 -10 16 -10 23 1 6 9 26 12 79 8 77 -6 94 -13 71 -29
-13 -9 -12 -10 2 -5 10 3 20 1 23 -4 4 -6 -3 -10 -14 -10 -12 0 -21 -3 -21 -8
0 -4 21 -7 48 -7 26 0 50 -3 53 -8 3 -5 14 -1 23 8 9 10 25 15 36 12 11 -3 20
-1 20 4 0 5 7 9 15 9 8 0 15 -7 15 -15 0 -8 -6 -15 -14 -15 -18 0 -39 -26 -31
-39 4 -7 12 -7 23 -1 9 6 38 19 65 30 l47 19 16 -25 c14 -21 23 -24 60 -22 24
2 44 7 44 12 0 5 7 3 15 -4 9 -7 12 -16 7 -19 -4 -3 0 -14 11 -24 18 -18 19
-18 24 2 3 12 9 21 14 21 5 0 9 12 10 28 0 23 1 24 8 7 5 -12 17 -20 32 -20
13 0 25 -4 25 -10 5 -34 17 -55 28 -46 7 6 18 6 25 1 8 -4 20 -6 28 -3 8 3 13
-2 13 -16 0 -28 36 -28 43 -1 6 23 37 27 37 5 0 -20 10 -19 26 3 13 16 15 16
28 0 16 -22 26 -23 26 -3 0 8 7 15 15 15 20 0 32 -30 15 -40 -22 -14 7 -21 32
-7 15 7 23 18 20 27 -5 13 -3 13 14 0 35 -28 44 -39 44 -54 0 -8 5 -18 10 -21
6 -3 10 -1 10 5 0 6 14 8 36 6 46 -6 53 -13 23 -25 -18 -7 1 -10 76 -11 235
-4 267 -8 261 -33 -1 -7 -1 -9 1 -4 3 4 10 4 16 0 18 -11 96 -13 102 -2 11 17
20 9 22 -19 1 -15 -3 -33 -9 -39 -8 -10 -6 -13 6 -13 10 0 15 4 11 10 -3 5 9
14 27 19 30 8 31 9 7 10 -16 1 -26 7 -26 16 0 9 5 11 11 6 6 -4 25 -7 41 -6
19 1 32 -4 36 -14 6 -13 9 -11 17 9 9 22 11 23 17 7 5 -12 1 -22 -11 -32 -11
-7 -16 -17 -11 -21 4 -4 13 -2 19 4 13 13 52 17 45 5 -3 -5 -1 -17 4 -28 6
-17 8 -15 8 10 1 20 4 26 10 17 4 -7 14 -12 21 -10 7 2 15 -3 17 -9 3 -8 -4
-13 -17 -13 -12 0 -18 -4 -15 -10 4 -6 10 -8 15 -5 5 3 11 1 15 -5 12 -20 27
-10 23 15 -5 23 -2 25 33 25 22 0 39 -4 39 -10 0 -5 -9 -10 -20 -10 -12 0 -20
-7 -20 -16 0 -12 7 -15 30 -12 17 3 30 1 30 -3 0 -5 10 -5 23 0 12 4 29 6 37
4 12 -4 12 -3 2 5 -7 5 -24 7 -36 5 -15 -3 -25 1 -29 12 -4 9 -3 14 2 11 5 -3
21 0 36 8 15 8 33 13 39 11 6 -2 24 -6 39 -9 30 -7 28 -26 -4 -26 -23 0 -25
-15 -4 -24 8 -3 15 -1 15 3 0 5 7 12 16 15 12 4 14 1 9 -14 -4 -11 -2 -20 4
-20 6 0 11 4 11 9 0 13 64 4 68 -9 2 -5 21 -10 42 -10 28 0 40 5 43 18 4 13 5
11 6 -5 1 -13 7 -23 16 -23 8 0 15 -5 15 -11 0 -5 4 -8 9 -4 6 3 15 -3 21 -12
9 -14 10 -9 6 27 -6 45 -6 45 9 18 17 -30 45 -38 45 -13 0 8 5 15 11 15 5 0 7
-4 4 -10 -3 -5 -1 -10 4 -10 6 0 11 -6 11 -14 0 -14 49 -24 133 -28 36 -1 37
-2 37 -40 0 -36 2 -38 30 -38 29 0 30 2 30 42 0 41 0 42 16 20 17 -24 43 -29
62 -10 9 9 12 5 12 -18 0 -29 3 -31 56 -43 52 -12 93 -7 46 6 -36 9 -25 23 18
23 38 0 52 -12 30 -25 -5 -3 -8 -19 -6 -36 4 -31 16 -53 16 -28 0 12 17 16 80
17 l80 2 0 -40 c0 -23 -5 -40 -11 -40 -7 0 -9 10 -7 25 4 21 1 25 -18 25 -15
0 -24 -6 -24 -15 0 -8 -5 -15 -10 -15 -6 0 -5 -8 2 -20 15 -24 4 -37 -16 -18
-10 11 -32 14 -85 11 -60 -4 -71 -2 -71 11 0 17 -46 23 -52 7 -1 -5 -27 -6
-55 -4 -43 5 -53 9 -53 24 0 11 -4 19 -10 19 -5 0 -10 -9 -10 -20 0 -15 -7
-20 -26 -20 -24 0 -25 -1 -8 -17 17 -17 17 -18 -4 -21 -16 -2 -22 -10 -22 -28
0 -17 -5 -24 -20 -24 -17 0 -19 4 -14 28 4 15 10 31 14 35 12 14 -33 55 -47
44 -10 -7 -13 -3 -13 17 0 24 -4 26 -40 26 -22 0 -40 -4 -40 -10 0 -5 -18 -10
-40 -10 -22 0 -40 -4 -40 -10 0 -5 -18 -10 -39 -10 -22 0 -43 5 -46 10 -3 6
-10 10 -16 10 -25 0 30 -36 56 -36 124 -3 125 -3 125 -24 0 -11 -5 -20 -11
-20 -5 0 -7 -5 -3 -11 3 -6 9 -7 13 -2 3 5 23 10 44 12 27 2 37 -1 37 -12 0
-9 6 -18 13 -21 10 -5 10 -7 0 -12 -23 -10 -15 -33 10 -26 18 5 20 3 10 -9
-10 -12 -7 -15 15 -16 15 -1 21 1 14 4 -13 5 -7 23 9 23 22 0 6 -40 -23 -59
-18 -11 -27 -21 -20 -21 23 0 83 53 69 62 -7 5 1 8 20 8 17 0 35 -4 38 -10 3
-5 13 -10 21 -10 8 0 14 5 14 10 0 6 -7 10 -15 10 -8 0 -15 5 -15 10 0 6 18
10 40 10 33 0 40 -3 40 -19 0 -11 5 -21 12 -23 6 -2 13 -19 14 -37 2 -24 -1
-31 -12 -27 -8 3 -14 1 -14 -3 0 -9 24 -21 41 -21 6 0 8 9 4 19 -8 27 14 37
69 33 44 -4 46 -5 41 -32 l-5 -29 122 0 c98 -1 125 -4 140 -17 22 -21 23 -34
3 -34 -8 0 -15 -7 -15 -15 0 -19 3 -19 47 5 21 11 52 20 70 20 32 0 33 -2 35
-42 1 -37 2 -39 5 -10 4 30 7 32 44 32 40 0 46 9 40 58 -1 6 3 12 9 12 5 0 10
-20 10 -45 0 -25 -4 -45 -10 -45 -19 0 -10 -15 16 -27 15 -7 32 -9 37 -6 6 4
30 6 54 4 30 -2 43 1 43 11 0 11 2 10 9 -1 5 -7 17 -11 27 -8 11 4 35 2 54 -2
19 -5 29 -9 23 -10 -7 -1 -13 -8 -13 -16 0 -10 10 -15 30 -15 23 0 30 -4 30
-20 0 -16 7 -20 38 -21 20 -1 48 -4 61 -8 22 -6 23 -8 9 -21 -13 -13 -12 -16
10 -27 13 -7 35 -13 48 -13 20 0 24 5 24 30 0 25 4 30 25 30 16 0 25 6 25 15
0 8 9 15 20 15 11 0 23 -7 26 -15 4 -8 12 -15 19 -15 8 0 15 -12 17 -27 3 -27
5 -28 63 -29 33 0 66 4 73 9 8 6 12 5 12 -2 0 -7 3 -10 8 -8 4 3 13 -1 20 -9
11 -12 10 -14 -3 -14 -8 0 -15 -4 -15 -10 0 -5 3 -10 8 -10 4 0 6 -15 6 -32
-2 -44 5 -53 22 -31 13 17 13 17 15 -2 1 -11 0 -30 -1 -42 -1 -13 3 -23 8 -23
12 0 24 58 15 73 -4 6 0 8 9 4 11 -4 18 2 22 16 9 33 7 37 -9 37 -8 0 -15 -6
-15 -14 0 -18 -38 -32 -51 -19 -11 11 17 53 34 49 6 -1 9 -1 5 1 -12 7 -10 33
2 33 6 0 10 -4 10 -10 0 -17 25 -11 40 10 9 13 26 20 46 20 19 0 34 6 38 15 9
24 34 18 57 -15 21 -28 25 -29 79 -23 50 5 58 3 62 -13 4 -17 -1 -19 -59 -16
-54 3 -62 1 -57 -12 3 -9 1 -16 -5 -16 -6 0 -11 7 -11 15 0 27 -28 16 -32 -13
-4 -26 -2 -28 33 -31 27 -1 40 3 47 15 9 16 12 15 36 -11 l26 -28 0 32 c0 17
5 31 10 31 6 0 10 -5 10 -12 0 -6 6 -3 14 8 15 19 15 19 29 0 14 -19 15 -19
26 2 9 16 22 22 49 23 l37 2 -40 7 -40 7 43 2 42 1 0 1670 0 1670 -15040 0
-15040 0 0 -1655z m28498 -1205 c-4 -25 0 -31 25 -39 22 -8 32 -7 44 4 8 8 29
15 46 15 27 -1 29 -2 14 -11 -10 -6 -25 -8 -34 -5 -13 5 -13 4 -4 -8 13 -15 5
-46 -13 -47 -6 0 -2 -4 9 -8 19 -8 19 -8 -3 -15 -29 -10 -25 -36 8 -53 l25
-13 -26 0 c-18 0 -28 6 -32 20 -3 11 -13 20 -22 20 -11 0 -15 6 -11 18 8 25
-48 50 -92 41 -18 -4 -32 -4 -32 0 0 3 -10 11 -22 16 -31 13 -36 45 -9 45 12
0 21 5 21 12 0 6 6 4 13 -6 10 -14 17 -15 41 -7 15 6 32 9 37 5 5 -3 9 6 9 20
0 14 3 26 6 26 4 0 4 -13 2 -30z"/>
<path d="M1246 17155 c-9 -14 -23 -25 -31 -25 -9 0 -15 -10 -15 -24 0 -22 -3
-24 -40 -19 -40 6 -58 -11 -22 -20 9 -2 4 -3 -12 -1 -16 2 -41 4 -57 4 -25 0
-29 4 -30 28 0 25 -1 26 -9 5 -5 -12 -18 -27 -29 -33 -31 -16 -26 -33 9 -28
24 4 30 1 30 -14 0 -14 8 -18 40 -18 31 0 40 4 40 18 0 14 2 14 9 3 5 -8 16
-11 25 -8 8 3 18 2 21 -3 4 -6 0 -10 -7 -10 -7 0 -19 -9 -26 -20 -11 -18 -10
-20 19 -20 30 0 31 2 27 35 -3 28 -1 35 14 35 10 0 20 -10 24 -25 4 -16 13
-25 26 -25 10 0 16 -4 13 -10 -3 -5 -1 -10 4 -10 6 0 11 7 11 15 0 8 -6 15
-14 15 -8 0 -18 5 -21 10 -3 6 3 10 14 10 14 0 23 -9 27 -25 8 -32 35 -34 31
-2 -1 13 3 21 11 20 22 -5 15 65 -8 77 -11 6 -20 20 -20 31 0 24 -17 59 -29
59 -5 0 -16 -11 -25 -25z"/>
<path d="M15302 15150 c-17 -28 -15 -37 11 -44 l22 -7 -22 -15 c-18 -13 -21
-22 -17 -47 5 -30 4 -29 -17 11 -25 49 -42 60 -64 42 -13 -10 -19 -10 -33 4
-22 19 -42 21 -42 4 0 -9 -3 -9 -12 0 -7 7 -20 12 -30 12 -11 0 -23 12 -30 28
l-11 27 -8 -31 c-9 -31 -32 -49 -50 -38 -5 3 -9 -1 -9 -10 0 -8 -15 -20 -34
-26 -76 -25 -155 -148 -191 -298 -14 -57 -17 -97 -12 -182 4 -82 2 -120 -10
-157 -15 -47 -26 -227 -24 -370 l2 -73 -29 0 c-41 0 -115 -41 -130 -73 -25
-52 -11 -301 22 -395 31 -88 40 -197 29 -372 -6 -91 -7 -172 -2 -181 4 -8 5
-20 1 -26 -9 -14 -132 -93 -145 -93 -5 0 -46 -22 -92 -50 -86 -52 -276 -130
-360 -148 -27 -6 -90 -16 -139 -23 -177 -23 -259 -92 -275 -229 -5 -41 -15
-91 -22 -110 -8 -23 -13 -129 -15 -320 -2 -156 -8 -323 -14 -370 -12 -92 -28
-337 -36 -545 -6 -147 -12 -169 -99 -348 -55 -113 -57 -121 -62 -215 -3 -63 1
-138 11 -214 13 -95 17 -208 17 -605 l0 -488 -38 -250 -38 -250 2 -630 c2
-346 7 -691 13 -766 9 -129 57 -441 79 -525 23 -88 60 -305 66 -389 6 -79 -5
-234 -30 -428 -12 -95 -24 -259 -19 -271 3 -8 1 -17 -4 -20 -13 -8 -18 10 -18
56 1 21 -2 38 -6 38 -13 0 -9 21 7 37 9 9 13 23 10 35 -4 10 -2 24 3 31 8 10
10 99 3 150 -1 4 -12 7 -25 7 -35 0 -46 -38 -18 -60 23 -19 14 -51 -10 -34 -7
5 -30 16 -52 23 -31 11 -40 11 -46 1 -4 -7 -17 -10 -28 -7 -12 2 -24 0 -27 -7
-3 -6 -3 1 0 16 3 16 1 28 -5 28 -9 0 -15 -21 -11 -42 0 -5 -6 -8 -15 -8 -9 0
-12 -5 -8 -12 4 -6 3 -8 -4 -4 -6 3 -23 1 -39 -6 -39 -17 -39 -17 -18 -32 10
-7 15 -18 11 -24 -9 -15 -46 -16 -46 -2 0 6 -7 10 -15 10 -8 0 -15 -4 -15 -10
0 -5 -12 -10 -26 -10 -19 0 -25 4 -20 15 4 10 -1 15 -15 15 -11 0 -18 -4 -14
-9 6 -11 -13 -26 -23 -17 -12 13 -9 76 4 76 7 0 11 8 9 20 -6 31 -14 40 -30
33 -21 -7 -67 6 -60 17 3 6 -4 10 -16 10 -19 0 -21 -4 -15 -30 3 -18 1 -30 -5
-30 -6 0 -8 -9 -4 -20 5 -16 3 -19 -12 -13 -10 3 -15 3 -11 -1 3 -4 14 -9 24
-10 10 -2 20 -8 22 -14 8 -25 -43 -5 -56 21 -14 28 -37 36 -45 15 -3 -10 -7
-10 -20 1 -10 7 -17 19 -17 25 0 18 -49 12 -63 -8 -12 -16 -16 -17 -35 -5 -12
8 -22 17 -22 22 0 4 -5 5 -10 2 -6 -4 -7 -12 -4 -18 4 -7 4 -9 -1 -5 -4 4 -20
1 -34 -7 -18 -9 -32 -10 -42 -4 -11 7 -11 9 4 9 10 0 20 7 23 15 4 8 10 13 14
10 5 -3 13 2 18 11 10 17 62 29 62 13 0 -5 5 -9 11 -9 5 0 7 5 3 11 -4 8 0 9
15 4 29 -9 27 9 -4 25 -13 7 -26 20 -28 29 -4 14 -5 14 -6 0 -1 -11 -14 -19
-36 -23 -19 -4 -35 -11 -35 -16 0 -5 -34 -8 -75 -6 -61 3 -75 1 -75 -11 0 -10
6 -12 21 -8 15 5 19 4 15 -4 -4 -6 -14 -11 -22 -11 -23 0 -16 -20 9 -21 12 -1
26 -1 30 0 13 2 20 -30 9 -41 -8 -8 -15 -8 -25 0 -10 9 -22 9 -45 0 -35 -13
-42 -28 -14 -28 9 0 24 -5 32 -11 11 -7 3 -8 -30 -4 -66 8 -83 7 -107 -8 -7
-5 -13 -4 -13 2 0 6 -9 15 -21 22 -19 10 -20 9 -14 -11 6 -18 4 -21 -6 -14
-22 13 -51 15 -64 4 -17 -14 -45 -2 -45 19 0 10 -7 18 -15 18 -8 0 -15 -8 -15
-17 0 -12 -8 -16 -27 -15 -50 3 -53 5 -46 23 7 16 6 16 -11 0 -20 -21 -25 -21
-46 -8 -13 8 -12 10 3 10 24 0 21 21 -4 27 -12 4 -18 11 -15 20 5 11 -2 12
-29 7 -25 -4 -35 -3 -35 7 0 8 -6 5 -14 -7 -11 -14 -17 -16 -27 -7 -6 6 -17 9
-24 6 -7 -2 -15 4 -18 14 -4 14 -5 13 -6 -5 -1 -15 -5 -21 -13 -16 -7 4 -22 8
-35 9 -18 0 -23 -5 -23 -23 0 -20 4 -23 33 -21 18 2 38 0 45 -5 6 -4 17 -4 22
-1 6 3 10 -2 10 -12 0 -16 -7 -19 -39 -17 -21 1 -47 5 -59 8 -11 4 -23 2 -27
-4 -7 -12 -26 -14 -24 -2 3 19 -2 23 -15 13 -9 -7 -22 -8 -37 -3 l-23 9 21 12
c12 6 33 11 47 11 14 0 27 4 30 9 9 13 -53 22 -75 11 -20 -11 -23 -8 -20 23 2
10 -4 17 -14 17 -8 0 -18 7 -21 15 -4 10 -14 13 -30 9 -33 -8 -31 12 3 28 15
7 29 22 31 33 3 16 1 18 -9 8 -7 -7 -23 -13 -36 -13 -13 0 -24 -6 -24 -12 -1
-7 -2 -19 -3 -27 0 -8 -9 -15 -19 -17 -14 -2 -16 1 -7 11 17 21 -4 27 -36 10
-15 -7 -31 -12 -36 -9 -4 3 -18 2 -30 -2 -21 -6 -21 -7 6 -21 22 -11 30 -12
42 -2 19 16 28 6 20 -24 -7 -29 -33 -42 -52 -26 -8 6 -14 8 -14 3 0 -5 -4 -4
-8 3 -5 8 -19 9 -44 4 -26 -6 -35 -5 -32 3 3 7 -7 13 -22 14 -22 2 -24 -1 -15
-12 9 -11 8 -17 -4 -29 -8 -9 -15 -23 -15 -31 0 -19 -11 -20 -29 -3 -8 6 -11
7 -8 1 3 -6 -7 -18 -22 -27 -26 -15 -30 -15 -35 -1 -3 9 -11 12 -18 8 -10 -6
-9 -3 0 9 19 23 5 40 -29 35 -16 -3 -29 -1 -29 3 0 4 -7 15 -16 23 -14 15 -13
16 13 17 24 0 25 2 8 8 -30 12 -45 2 -45 -30 0 -20 -5 -29 -16 -29 -10 0 -14
6 -10 15 4 12 -3 15 -32 17 -46 1 -51 2 -82 15 -18 8 -32 7 -52 -3 -30 -15
-68 -19 -68 -6 0 4 6 14 13 21 10 11 9 14 -1 18 -21 8 -43 34 -37 44 4 5 -1 9
-10 9 -9 0 -13 -5 -10 -10 15 -24 15 -58 0 -64 -8 -3 -15 -12 -15 -21 0 -8 -9
-15 -20 -15 -12 0 -20 -7 -20 -16 0 -13 -6 -15 -27 -10 -39 10 -77 8 -81 -4
-2 -6 -7 -8 -12 -5 -4 3 -24 -2 -44 -10 -37 -16 -62 -12 -50 7 3 5 14 8 24 5
10 -2 23 4 31 14 9 13 17 15 25 8 22 -18 24 31 2 53 -16 16 -17 22 -8 28 7 5
19 6 27 3 7 -3 13 0 13 7 0 6 -4 8 -10 5 -5 -3 -10 1 -10 9 0 27 -29 18 -45
-14 -9 -17 -23 -30 -33 -31 -74 -5 -122 -16 -122 -30 0 -5 7 -9 15 -9 8 0 15
-4 15 -8 0 -16 -24 -32 -48 -32 -19 0 -23 4 -17 18 12 31 10 37 -11 34 -16 -2
-26 5 -35 28 -10 20 -21 30 -36 30 -12 0 -26 8 -32 17 -14 25 -40 0 -33 -32 4
-23 1 -25 -24 -24 -16 1 -38 -2 -48 -6 -15 -6 -17 -5 -11 5 6 10 2 11 -19 6
-17 -4 -34 -2 -43 6 -12 10 -14 9 -13 -3 5 -32 1 -41 -14 -27 -8 7 -11 17 -8
22 3 6 -3 6 -14 2 -10 -5 -25 -9 -31 -9 -7 0 -13 -5 -13 -11 0 -5 -6 -2 -13 9
-12 16 -18 16 -47 7 -41 -15 -43 -15 -34 1 6 9 4 9 -7 1 -8 -6 -23 -8 -33 -5
-17 7 -18 8 -3 14 14 5 15 10 5 31 -11 26 -31 27 -21 1 8 -21 -10 -18 -35 6
-25 22 -46 17 -37 -10 7 -23 -27 -54 -49 -45 -18 7 -21 20 -6 29 17 10 11 26
-7 23 -10 -1 -24 1 -30 5 -26 17 -11 27 38 27 36 0 49 4 46 13 -2 6 -9 12 -14
12 -6 0 -15 3 -19 8 -4 4 -14 1 -23 -7 -16 -15 -20 -16 -47 -16 -12 0 -15 -6
-10 -24 4 -18 -1 -33 -19 -53 -17 -19 -23 -22 -19 -9 6 17 5 17 -17 6 -13 -8
-30 -20 -37 -29 -8 -9 -11 -10 -7 -3 9 17 -49 16 -67 -1 -7 -7 -17 -14 -23
-14 -5 -1 -11 -7 -13 -13 -3 -8 3 -10 17 -5 11 3 21 2 21 -3 0 -11 -39 -21
-58 -14 -7 2 -12 8 -12 13 0 6 5 7 11 3 6 -3 10 1 9 12 -4 39 -1 45 25 38 18
-4 27 -1 31 10 3 9 10 13 15 10 5 -3 7 10 5 27 -2 18 -8 35 -13 36 -6 2 -8 -7
-6 -20 4 -19 -1 -26 -19 -32 -36 -12 -88 -15 -88 -5 0 16 20 22 34 11 15 -13
46 -4 46 13 0 6 -4 17 -9 24 -7 11 -9 10 -15 -3 -4 -10 -13 -14 -24 -11 -13 4
-23 -1 -32 -19 -15 -29 -25 -32 -34 -10 -5 14 -9 14 -36 0 -17 -9 -40 -13 -54
-9 -20 5 -24 2 -22 -13 4 -19 -11 -43 -25 -43 -5 0 -6 6 -4 13 3 6 0 19 -5 27
-9 13 -12 12 -23 -5 -6 -11 -12 -24 -13 -30 0 -5 -4 -21 -8 -34 -6 -18 -10
-21 -17 -10 -7 12 -9 11 -9 -1 -1 -12 -3 -11 -11 3 -7 12 -23 17 -51 17 -23 0
-39 2 -36 5 4 4 66 13 106 14 6 1 12 6 12 12 0 5 -10 9 -22 7 -14 -2 -22 2
-20 10 1 6 -5 13 -13 13 -24 2 -29 4 -42 12 -8 5 -13 4 -13 -2 0 -6 -7 -8 -15
-5 -12 5 -13 9 -4 20 15 19 8 25 -30 28 -34 2 -46 -13 -23 -30 21 -16 -5 -54
-38 -54 -14 0 -35 -3 -48 -6 -18 -5 -23 -2 -28 22 -5 28 -8 29 -55 28 -36 0
-53 -6 -63 -19 -13 -18 -14 -18 -25 3 -15 28 -14 35 3 29 8 -3 21 2 30 12 21
23 20 31 -3 31 -10 0 -21 7 -25 15 -3 8 -12 15 -21 15 -8 0 -15 6 -15 13 0 6
-5 4 -11 -6 -7 -13 -7 -22 0 -31 8 -9 7 -13 -5 -13 -12 0 -14 7 -10 31 6 29 5
29 -8 11 -9 -11 -16 -26 -16 -33 0 -8 -6 -12 -12 -9 -15 5 -11 39 5 49 9 6 8
8 -1 8 -7 0 -15 -7 -18 -15 -7 -16 -34 -21 -34 -5 0 5 -7 7 -16 3 -15 -6 -15
-8 2 -21 14 -11 15 -13 3 -9 -9 3 -20 2 -25 -2 -5 -5 -30 -14 -56 -21 -51 -13
-56 -20 -35 -42 8 -7 12 -19 9 -26 -2 -6 1 -12 8 -12 6 0 8 -5 5 -10 -4 -6 -1
-18 6 -26 19 -23 6 -25 -29 -3 -28 18 -30 22 -17 36 8 8 15 18 15 22 0 10 -51
63 -76 78 -10 6 -18 16 -16 22 1 6 -2 11 -8 11 -19 0 -10 -18 20 -43 17 -14
26 -28 20 -32 -18 -11 -96 48 -85 65 10 15 -2 12 -20 -6 -9 -9 -19 -14 -22
-10 -4 3 -1 12 5 18 7 7 12 19 11 28 0 10 -4 8 -11 -7 -6 -12 -16 -24 -22 -26
-19 -7 -66 4 -60 14 3 5 15 7 28 3 25 -6 55 19 36 31 -5 3 -16 3 -22 -2 -7 -4
-25 -6 -40 -4 -27 2 -33 -5 -29 -36 1 -7 -4 -13 -10 -13 -7 0 -4 -6 7 -14 17
-13 17 -16 4 -30 -18 -18 -70 -10 -70 10 0 8 -4 14 -10 14 -5 0 -10 -5 -10
-12 0 -6 -3 -8 -7 -4 -5 4 0 13 10 21 16 12 15 13 -10 20 -26 6 -42 21 -43 37
0 4 7 5 15 2 8 -4 23 -3 33 1 9 5 23 9 30 11 35 7 18 12 -35 11 -32 -1 -56 -6
-55 -11 2 -5 -2 -13 -10 -17 -10 -7 -7 -14 15 -33 l27 -23 -25 0 c-13 0 -22 3
-20 7 3 4 -2 11 -11 14 -8 3 -12 2 -9 -4 3 -6 1 -10 -4 -10 -6 0 -11 -7 -11
-16 0 -11 6 -15 19 -11 13 3 21 -1 24 -15 4 -14 2 -17 -7 -9 -8 7 -16 7 -22 1
-6 -6 -23 -3 -46 10 -28 15 -36 16 -32 5 5 -11 -2 -14 -25 -12 -29 2 -39 22
-11 22 7 0 15 6 18 14 3 10 -2 12 -23 8 -21 -3 -34 1 -48 17 -10 11 -16 16
-13 10 9 -17 -21 -25 -37 -10 -11 11 -15 9 -24 -10 -12 -26 -5 -32 15 -12 9 9
15 9 24 0 7 -7 8 -12 3 -12 -6 0 -3 -5 5 -10 11 -8 1 -10 -35 -8 -30 2 -49 7
-48 14 1 6 -9 10 -22 8 -17 -1 -33 7 -50 28 -22 25 -31 24 -26 -4 1 -12 -39
-30 -55 -24 -8 3 -14 1 -14 -5 0 -6 -4 -7 -10 -4 -20 12 -9 25 20 25 31 0 41
14 16 23 -9 4 -12 15 -9 32 5 24 7 25 23 10 19 -17 34 -20 25 -5 -4 6 7 10 24
10 17 0 31 -3 31 -7 0 -5 11 -9 25 -9 31 -2 31 2 3 17 -37 20 -145 22 -171 4
l-22 -17 23 7 c23 7 23 6 7 -18 -19 -30 -65 -42 -81 -21 -6 8 -22 14 -36 14
-13 0 -29 5 -36 12 -9 9 -12 8 -12 -6 0 -16 -1 -16 -16 -2 -20 20 -43 20 -66
0 -14 -14 -20 -14 -33 -4 -11 9 -18 10 -28 1 -8 -6 -17 -8 -21 -4 -9 9 -27
-18 -20 -29 3 -4 16 -8 29 -8 13 0 27 -5 30 -11 11 -16 0 -20 -27 -10 -22 8
-27 5 -43 -25 -15 -28 -16 -37 -5 -47 10 -9 13 -9 17 1 6 16 23 16 23 -1 0 -8
-6 -14 -12 -15 -7 0 -26 -3 -41 -5 -23 -4 -27 -1 -21 12 18 44 17 48 -17 43
-27 -4 -31 -2 -26 12 8 20 -7 21 -27 1 -20 -20 -25 -19 -19 5 4 15 14 20 39
20 18 0 36 -4 39 -10 10 -15 35 -12 35 5 0 14 -11 19 -37 16 -7 -1 -13 3 -13
8 0 5 15 11 33 13 42 4 44 32 2 36 -29 3 -29 3 -10 -12 18 -14 19 -15 2 -16
-10 0 -27 5 -38 11 -16 8 -26 7 -46 -6 -23 -16 -27 -16 -35 -2 -6 12 -18 14
-45 10 -31 -5 -35 -4 -30 11 10 26 -36 44 -58 22 -9 -9 -13 -16 -8 -16 14 0
-21 -20 -36 -20 -11 0 -9 6 6 23 19 19 19 24 6 36 -21 19 -27 10 -32 -54 -1
-5 -8 0 -18 11 -15 19 -19 20 -56 7 -37 -13 -78 -11 -64 4 4 3 -1 12 -11 20
-16 12 -16 13 2 7 14 -5 17 -3 14 12 -2 10 -10 18 -16 16 -7 -1 -12 3 -12 9 0
5 -5 7 -11 4 -6 -4 -8 -13 -5 -20 3 -8 -3 -19 -11 -27 -15 -11 -16 -11 -9 7 6
16 5 17 -5 8 -10 -10 -9 -15 1 -27 7 -9 16 -13 21 -10 5 3 9 -1 10 -8 0 -7 2
-29 4 -48 1 -19 1 -27 -2 -17 -2 10 -12 16 -21 15 -11 -2 -17 3 -16 14 1 10
-3 16 -10 15 -6 -1 -10 3 -9 9 1 7 -7 14 -17 17 -15 4 -20 0 -21 -16 -1 -17
-2 -18 -6 -5 -4 16 -7 16 -33 -4 -24 -17 -32 -19 -44 -8 -13 10 -17 9 -22 -3
-9 -24 -33 -29 -27 -6 8 27 -15 50 -42 43 -13 -3 -26 -1 -29 5 -4 6 -2 11 3
11 6 0 11 7 11 15 0 8 -5 15 -11 15 -5 0 -8 -4 -5 -9 3 -5 -1 -11 -9 -15 -8
-3 -14 0 -12 7 1 8 -14 13 -41 15 -37 3 -42 6 -37 23 4 10 2 19 -4 19 -5 0
-13 -9 -16 -20 -7 -23 -16 -25 -33 -8 -9 9 -16 7 -32 -7 -19 -17 -19 -20 -5
-28 9 -5 27 -6 40 -3 14 4 27 0 35 -9 10 -12 10 -15 -3 -15 -8 0 -17 -5 -19
-12 -3 -8 -15 -5 -36 11 -23 16 -30 18 -26 7 7 -18 -11 -22 -21 -5 -4 6 -14 8
-23 4 -8 -3 -19 0 -24 7 -6 10 -8 10 -8 1 0 -7 -9 -13 -20 -13 -11 0 -20 -4
-20 -10 0 -5 -5 -10 -11 -10 -5 0 -8 3 -6 8 3 4 -1 13 -9 20 -8 7 -14 9 -14 5
0 -13 -44 -11 -52 1 -5 7 4 16 20 23 27 12 27 12 5 19 -13 3 -23 10 -23 15 0
5 -7 9 -16 9 -14 0 -13 -2 1 -17 16 -16 16 -18 -5 -35 -12 -10 -26 -18 -30
-18 -5 0 -27 18 -50 40 -47 45 -50 47 -50 23 0 -14 -2 -15 -9 -5 -7 11 -10 10
-15 -3 -9 -24 -8 -25 14 -25 11 0 20 -4 20 -9 0 -4 11 -6 24 -4 13 3 27 0 31
-7 10 -16 7 -17 -52 -24 -28 -3 -70 -12 -93 -20 -39 -13 -40 -13 -35 5 5 15 3
18 -12 12 -10 -3 -24 -11 -31 -16 -7 -5 -15 -7 -19 -4 -8 9 -10 51 -2 57 3 3
9 15 13 28 7 20 5 21 -18 13 -17 -7 -26 -7 -30 2 -5 9 -7 9 -12 0 -8 -19 -27
-16 -20 3 3 8 2 13 -3 10 -5 -3 -14 1 -21 10 -11 12 -15 12 -21 2 -7 -10 -9
-10 -9 1 0 9 -4 10 -13 4 -6 -5 -23 -8 -37 -7 -27 2 -64 -32 -53 -49 4 -6 11
-3 19 7 9 13 13 14 17 4 4 -8 6 -7 6 5 1 9 8 17 16 17 32 0 10 -36 -28 -45
-22 -6 -32 -2 -49 16 -14 16 -22 20 -25 12 -3 -7 -11 -13 -19 -13 -19 0 -18
-20 4 -36 16 -13 16 -13 0 -14 -10 0 -18 4 -18 10 0 5 -7 7 -15 4 -9 -4 -15 0
-15 9 0 8 -6 18 -12 20 -8 3 -6 6 5 6 9 1 17 -5 17 -11 0 -7 6 -4 12 7 6 11
16 23 21 26 14 10 -1 29 -24 29 -11 0 -22 7 -25 15 -4 8 -10 15 -16 15 -5 0
-6 -4 -3 -10 3 -5 1 -10 -5 -10 -7 0 -14 9 -17 20 -5 20 -23 28 -23 10 0 -5
-9 -10 -20 -10 -11 0 -20 -5 -20 -12 0 -6 -3 -8 -6 -5 -4 3 -15 2 -26 -4 -16
-9 -25 -6 -43 11 -18 16 -31 21 -49 16 -19 -5 -26 -2 -26 9 0 8 -4 15 -9 15
-5 0 -8 -8 -7 -17 1 -12 -7 -19 -23 -21 -15 -2 -21 0 -17 7 4 6 0 11 -9 11
-13 0 -14 -4 -4 -21 9 -17 7 -24 -12 -42 l-22 -21 5 27 c3 14 2 24 -3 22 -4
-3 -10 -1 -14 5 -3 5 -2 10 3 10 12 0 24 29 17 41 -6 9 -56 -7 -65 -21 -3 -5
-18 -3 -33 5 -15 7 -27 10 -27 4 0 -5 -8 -9 -17 -9 -15 0 -14 -4 6 -19 14 -10
31 -17 38 -14 7 3 13 0 13 -6 0 -6 -4 -11 -9 -11 -5 0 -17 -7 -26 -16 -11 -12
-19 -13 -29 -5 -7 6 -15 8 -18 5 -3 -2 -8 2 -11 11 -4 8 -2 15 3 15 6 0 10 6
10 13 -1 12 -66 47 -88 47 -7 0 -12 11 -12 25 0 14 -4 25 -10 25 -5 0 -8 -17
-7 -37 l2 -38 -44 -3 c-40 -3 -43 -2 -31 13 11 13 10 15 -4 9 -11 -4 -16 -1
-16 10 0 16 -2 16 -22 2 -18 -13 -22 -25 -21 -68 0 -31 -1 -39 -4 -20 -4 31
-18 43 -25 22 -5 -15 -81 15 -89 36 -4 11 -8 14 -8 8 -1 -6 -11 -10 -24 -8
-12 1 -26 3 -31 3 -5 1 -3 7 3 15 9 11 9 19 -1 35 -15 25 -15 25 -66 7 -41
-15 -82 -12 -82 6 0 13 -42 -1 -60 -21 -8 -9 -28 -18 -45 -20 -26 -3 -28 -1
-16 13 12 14 12 16 -3 10 -9 -3 -16 -1 -16 4 0 6 -10 14 -22 17 -48 13 -78 28
-78 37 0 6 6 5 14 -1 17 -14 67 -11 66 4 0 6 -16 9 -34 7 -19 -2 -37 1 -41 7
-11 18 -26 12 -23 -9 2 -10 -1 -18 -7 -17 -5 1 -9 5 -8 8 1 4 -7 5 -17 2 -23
-6 -27 -23 -5 -23 8 0 15 -4 15 -10 0 -5 -6 -10 -12 -10 -9 0 -8 -4 2 -10 10
-6 11 -10 3 -10 -7 0 -13 -6 -13 -14 0 -8 -5 -18 -11 -22 -8 -5 -10 4 -7 28 3
27 0 35 -12 34 -8 -1 -14 5 -13 12 2 6 -1 12 -6 12 -5 0 -11 -10 -13 -22 -4
-30 -38 -37 -38 -9 0 12 5 21 11 21 5 0 8 4 5 9 -4 5 0 11 6 14 7 2 10 8 5 12
-9 11 -58 -16 -54 -29 5 -16 -18 -35 -39 -32 -15 3 -18 11 -16 36 2 29 1 30
-14 16 -8 -9 -20 -14 -25 -10 -5 3 -12 -2 -15 -10 -3 -9 -17 -16 -30 -16 -25
0 -33 15 -12 22 6 2 8 9 4 16 -4 7 -24 10 -56 7 -36 -4 -51 -1 -57 9 -7 12
-16 13 -53 3 -25 -6 -46 -12 -48 -13 -1 0 5 -17 13 -37 19 -46 19 -44 -10 -44
-14 0 -25 4 -25 9 0 5 5 6 10 3 6 -3 10 4 10 17 -1 26 -41 79 -47 61 -3 -8
-14 -8 -41 -1 -20 6 -38 11 -39 12 -7 6 -13 56 -7 55 5 -1 17 -1 28 0 15 1 16
4 6 16 -15 17 -35 20 -24 4 5 -9 -1 -10 -20 -5 -25 6 -27 5 -21 -16 6 -23 6
-23 -16 2 -18 20 -21 21 -15 5 11 -29 14 -75 4 -75 -4 0 -8 7 -8 15 0 18 -16
20 -23 3 -3 -7 -6 -3 -6 9 -1 27 -11 33 -56 35 -20 1 -38 5 -41 10 -3 5 -12 4
-19 -2 -15 -12 -30 3 -20 20 3 6 2 10 -3 10 -9 0 -22 -29 -26 -55 -2 -19 -35
-16 -56 5 -12 12 -28 19 -36 16 -8 -3 -14 0 -14 6 0 7 -6 3 -14 -8 -14 -18
-15 -18 -24 6 -11 28 -42 59 -42 42 0 -6 5 -14 10 -17 18 -11 -33 -44 -52 -34
-28 15 -48 11 -41 -8 5 -16 4 -16 -9 0 -8 11 -21 18 -29 17 -29 -5 -50 0 -44
10 3 6 1 10 -4 10 -6 0 -11 9 -11 20 0 12 -7 20 -16 20 -10 0 -14 -6 -10 -15
3 -8 2 -15 -2 -16 -4 0 -20 -2 -37 -4 -16 -1 -40 -6 -52 -10 -19 -6 -23 -4
-23 14 0 25 -20 29 -21 4 0 -11 -3 -13 -6 -5 -2 6 -13 12 -24 12 -10 0 -18 5
-16 11 1 6 -4 14 -10 16 -7 3 -13 -2 -13 -11 0 -22 -9 -20 -30 6 -17 22 -18
22 -45 4 -15 -10 -25 -14 -21 -8 8 13 -20 35 -36 29 -8 -3 -6 -6 5 -6 10 -1
15 -6 12 -11 -4 -6 -11 -8 -16 -5 -5 4 -9 -6 -9 -21 l0 -27 -26 27 c-28 27
-54 34 -54 14 0 -9 -3 -9 -11 -1 -6 6 -18 9 -25 6 -8 -3 -14 1 -14 11 0 21
-16 21 -24 0 -3 -8 -10 -12 -16 -9 -6 4 -8 10 -5 14 2 5 -10 11 -27 15 -23 5
-34 2 -41 -9 -10 -18 -34 -20 -40 -2 -3 9 -9 9 -25 0 -26 -16 -42 3 -18 20 13
10 7 12 -35 13 -28 1 -45 -2 -39 -6 9 -5 9 -9 1 -14 -6 -4 -16 -4 -21 -1 -6 4
-20 -5 -31 -19 -25 -32 -51 -22 -67 24 -11 30 -44 42 -57 20 -3 -5 -14 -1 -25
10 -24 24 -49 28 -30 5 14 -16 3 -20 -19 -6 -7 5 -10 14 -7 20 4 6 1 11 -8 11
-20 0 -30 -19 -28 -52 2 -19 -2 -28 -13 -28 -14 0 -19 16 -16 50 1 9 -1 11 -6
5 -6 -7 -18 -7 -41 0 -18 6 -29 15 -25 19 4 4 -1 4 -12 0 -11 -5 -26 -14 -33
-21 -7 -6 -19 -10 -27 -7 -8 4 -15 1 -15 -5 0 -6 -7 -11 -15 -11 -8 0 -15 -5
-15 -11 0 -5 -5 -7 -10 -4 -6 4 -7 11 -4 17 5 7 0 9 -14 6 -13 -4 -27 1 -38
13 -16 18 -16 19 5 19 21 0 21 1 6 16 -15 15 -17 15 -35 -1 -12 -11 -20 -13
-20 -7 0 16 -67 15 -73 0 -4 -10 -8 -9 -16 2 -13 19 -66 21 -107 4 -33 -14
-34 -13 -35 8 0 20 -2 21 -11 7 -10 -15 -13 -14 -32 5 -21 22 -86 31 -86 12 0
-4 -7 -6 -15 -2 -9 3 -15 0 -15 -9 0 -20 -26 -19 -34 1 -3 8 -2 13 3 10 5 -4
7 2 4 13 -6 25 -35 17 -55 -16 -12 -21 -16 -22 -21 -9 -4 10 -1 16 9 16 9 0
14 5 12 12 -4 12 -78 15 -96 4 -7 -4 -12 -2 -12 4 0 6 -10 8 -26 4 -21 -5 -25
-4 -19 6 5 8 3 11 -6 8 -8 -3 -13 -12 -11 -22 3 -18 -13 -22 -23 -6 -3 5 -11
10 -16 10 -6 0 -7 -6 -3 -12 6 -9 3 -9 -9 1 -9 7 -24 11 -32 7 -8 -3 -15 -1
-15 5 0 6 -9 8 -20 4 -12 -4 -20 -2 -20 5 0 6 -11 8 -24 6 -14 -2 -27 1 -30 7
-3 9 -5 9 -5 0 -1 -7 -9 -13 -19 -13 -10 0 -23 -5 -30 -12 -8 -8 -15 -8 -25 0
-8 7 -17 9 -20 5 -4 -3 -7 -2 -7 3 0 5 -13 11 -30 12 -19 1 -30 -2 -30 -10 0
-10 -2 -10 -8 -1 -9 15 -102 27 -102 13 0 -5 -7 -7 -15 -4 -13 5 -15 -104 -15
-949 l0 -956 21 -15 c22 -15 18 -36 -7 -36 -12 0 -14 -308 -14 -2330 l0 -2330
4785 0 4785 0 0 30 c0 22 -7 33 -29 44 -40 21 -46 43 -16 62 14 9 31 14 38 11
10 -4 13 2 9 19 -5 28 -5 28 43 8 28 -11 35 -18 26 -27 -6 -6 -11 -21 -11 -33
0 -12 -7 -27 -15 -34 -8 -7 -15 -28 -15 -46 l0 -34 68 0 c61 1 65 2 48 15 -11
8 -23 15 -28 15 -4 0 -8 7 -8 15 0 8 6 15 13 15 24 0 49 37 42 59 -6 21 9 29
20 11 11 -18 45 -11 45 9 0 39 10 51 31 38 23 -14 25 -35 4 -43 -23 -9 -19
-44 5 -44 16 0 20 7 20 35 l0 36 40 -23 c42 -24 50 -42 25 -52 -8 -3 -15 -15
-15 -26 0 -12 -5 -30 -10 -41 -11 -19 -3 -19 369 -19 330 0 380 2 375 15 -3 8
5 25 20 38 14 13 26 31 26 40 0 23 16 29 30 12 7 -8 18 -15 24 -15 27 -1 35
-16 27 -53 l-9 -37 399 0 c348 0 399 2 399 15 0 9 9 15 24 15 24 0 36 16 36
50 0 29 17 33 40 10 11 -11 27 -20 36 -20 11 0 14 -5 9 -17 -23 -57 -58 -53
411 -52 236 1 421 3 412 6 -10 2 -18 10 -18 18 0 15 27 28 41 19 5 -3 9 7 10
23 0 15 4 37 8 48 8 19 8 19 19 -2 6 -11 23 -24 37 -27 14 -4 25 -10 25 -15 0
-12 -30 -22 -42 -15 -6 4 -5 -3 1 -15 8 -14 8 -21 1 -21 -5 0 -10 -4 -10 -10
0 -7 162 -10 465 -10 l465 0 0 31 c0 27 2 30 15 19 16 -13 21 0 6 15 -11 12
-3 65 10 65 4 0 13 -9 19 -20 6 -11 17 -20 24 -20 8 0 19 -7 26 -15 11 -13 8
-15 -14 -15 -22 0 -26 -4 -26 -30 l0 -30 416 0 c228 0 413 4 410 8 -3 4 0 28
5 53 16 73 17 75 40 51 11 -12 29 -22 39 -22 12 0 20 -7 20 -16 0 -18 -25 -46
-34 -37 -3 4 -6 -1 -6 -11 0 -9 4 -15 9 -11 5 3 12 1 16 -5 3 -5 16 -10 28
-10 21 0 22 3 19 105 -3 71 0 105 7 105 7 0 11 -36 11 -105 l0 -105 368 1
c202 1 355 4 340 6 -16 2 -28 10 -28 17 0 15 20 34 35 34 6 0 14 15 19 34 13
44 13 44 39 21 12 -11 30 -23 40 -26 21 -8 23 -37 1 -37 -11 0 -14 -5 -10 -17
4 -9 1 -20 -6 -25 -7 -4 162 -8 375 -8 308 0 387 3 381 13 -6 10 -4 10 7 0 18
-18 29 -16 29 5 0 9 9 37 20 60 l20 44 31 -26 c17 -14 35 -26 41 -26 6 0 8
-13 4 -35 l-7 -35 150 0 150 0 7 35 c9 48 31 46 25 -2 -1 -7 7 -13 19 -13 11
0 20 -4 20 -10 0 -12 349 -14 368 -1 17 10 42 58 42 79 0 13 4 12 23 -5 12
-11 33 -26 45 -33 17 -8 22 -18 19 -32 -6 -20 -3 -20 191 -14 277 8 352 15
352 32 0 10 -18 13 -82 11 l-82 -2 -14 38 c-8 20 -13 39 -11 41 2 2 51 6 108
9 96 5 104 4 108 -14 3 -10 11 -19 18 -19 7 0 19 -7 26 -16 11 -14 11 -18 -4
-29 -32 -23 -17 -33 61 -37 91 -6 122 7 122 50 l0 27 18 -21 c30 -37 102 -66
157 -62 46 3 50 5 53 31 4 35 18 35 25 -2 6 -28 7 -29 84 -33 43 -3 176 -6
295 -7 207 -2 217 -1 227 18 6 11 11 31 11 45 0 28 14 35 24 11 10 -26 26 -16
26 15 0 17 5 30 10 30 6 0 10 -15 10 -33 0 -49 21 -88 45 -85 19 3 20 10 18
95 -2 93 -2 93 22 93 25 0 25 -1 25 -95 l0 -95 64 0 c53 0 65 3 69 17 4 17 5
17 6 0 1 -16 9 -18 69 -15 l67 3 -2 35 c-3 62 6 94 38 130 17 19 29 30 25 23
-5 -10 -9 -109 -7 -170 1 -23 1 -23 180 -23 l179 0 7 29 6 29 177 6 c213 8
321 15 345 22 14 4 17 12 12 34 l-6 28 63 0 c35 0 74 2 88 4 42 5 34 -16 -10
-27 -30 -8 -52 -23 -77 -53 -19 -23 -32 -46 -29 -51 4 -5 0 -12 -6 -14 -8 -3
-6 -6 5 -6 9 -1 17 6 17 14 0 10 11 14 38 14 88 -2 201 19 230 43 7 6 31 8 56
5 66 -9 199 9 247 33 30 16 44 19 52 11 18 -18 43 -13 60 12 13 20 17 21 48
10 33 -13 38 -11 53 22 3 6 14 0 25 -13 20 -23 58 -28 258 -32 6 0 18 -6 25
-14 23 -22 55 -28 62 -11 3 8 12 15 20 15 21 0 9 -28 -15 -35 -19 -6 -18 -7 3
-25 l23 -19 -26 -1 c-14 0 -34 -7 -45 -15 -17 -13 7 -14 214 -15 174 0 232 3
232 12 0 9 3 9 12 0 8 -8 59 -12 165 -12 146 0 153 1 153 20 0 24 8 25 29 6 9
-8 28 -17 43 -21 21 -5 27 -3 33 15 6 18 12 20 33 15 15 -4 31 -13 35 -21 6
-10 29 -14 87 -14 l78 0 7 30 c8 35 0 50 -24 50 -9 0 -22 5 -28 11 -22 22 -51
0 -58 -43 -8 -45 -25 -35 -25 15 0 17 -6 30 -17 33 -56 17 -69 48 -26 59 41
10 51 22 46 53 -5 27 -5 27 11 6 8 -12 27 -25 42 -28 22 -6 25 -11 19 -33 -6
-25 -5 -25 26 -19 38 7 49 20 41 50 -5 20 -4 20 14 5 10 -9 31 -19 46 -23 15
-3 26 -12 24 -19 -12 -36 -14 -77 -6 -77 6 0 10 6 10 14 0 9 12 16 33 18 29 3
32 6 37 43 5 38 6 39 18 18 6 -12 25 -24 42 -28 34 -7 38 -19 13 -34 -20 -11
-22 -9 32 -26 25 -7 17 -25 -14 -31 -38 -8 -30 -34 10 -34 23 0 29 5 30 23 1
12 3 31 4 42 1 11 2 33 3 49 2 28 3 28 20 13 10 -10 26 -17 34 -17 21 0 42
-26 28 -35 -7 -4 -7 -12 0 -26 8 -14 21 -19 50 -19 38 0 38 0 34 35 -4 34 8
47 21 24 4 -5 19 -15 33 -20 26 -10 26 -11 8 -25 -29 -21 -6 -41 31 -28 20 7
29 17 31 37 4 29 11 34 29 16 6 -6 22 -17 35 -23 12 -6 23 -20 23 -31 0 -20
24 -20 3453 -23 l3452 -2 0 3269 0 3270 -132 -3 c-73 -1 -138 -5 -145 -9 -6
-4 -13 -1 -16 5 -3 10 -10 10 -31 -1 -20 -11 -29 -12 -38 -3 -16 16 -41 15
-33 0 4 -7 0 -5 -8 4 -16 20 -57 14 -57 -8 0 -8 -7 -14 -15 -14 -8 0 -15 7
-15 15 0 11 -12 14 -49 13 -27 -1 -47 -6 -44 -11 3 -5 -27 -8 -71 -5 -47 2
-76 0 -76 -7 0 -7 -3 -7 -8 0 -4 6 -22 11 -41 12 -21 1 -29 -2 -22 -7 9 -5 10
-10 3 -14 -6 -3 -13 -3 -16 2 -7 11 -170 4 -174 -8 -4 -12 -42 -14 -42 -2 0
10 -140 7 -171 -4 -13 -4 -40 -7 -59 -6 -19 1 -29 -1 -22 -4 6 -3 12 -10 12
-15 0 -5 -11 -3 -25 3 -14 6 -25 15 -25 20 0 5 -5 6 -10 3 -6 -3 -7 -17 -4
-31 8 -30 -8 -32 -21 -1 -6 12 -16 21 -23 20 -7 -2 -12 2 -12 7 0 7 -6 7 -19
1 -10 -6 -21 -7 -25 -4 -3 3 -6 1 -6 -6 0 -7 -5 -9 -12 -5 -19 12 -73 8 -71
-5 4 -14 -14 -15 -22 -1 -10 15 -52 12 -59 -5 -7 -19 -26 -19 -26 0 0 8 -7 15
-16 15 -8 0 -12 -5 -8 -11 3 -6 -7 -4 -22 4 -23 11 -34 11 -52 2 -13 -7 -23
-15 -23 -19 4 -31 0 -36 -19 -26 -11 5 -29 14 -40 20 -12 6 -21 6 -25 0 -4 -6
-10 -8 -15 -5 -5 3 -11 1 -15 -5 -4 -6 4 -10 19 -10 26 0 47 -19 24 -21 -25
-2 -53 3 -62 11 -5 5 -15 6 -22 3 -9 -3 -14 2 -14 17 0 14 -4 19 -12 14 -8 -5
-9 -2 -5 9 6 16 4 16 -21 0 -15 -10 -32 -25 -39 -33 -11 -13 -12 -12 -13 8 0
14 -4 20 -11 17 -5 -4 -8 -12 -6 -18 2 -7 -2 -17 -9 -24 -15 -15 -78 -18 -69
-3 3 6 -1 10 -9 10 -9 0 -16 5 -16 10 0 7 -7 7 -20 0 -11 -6 -25 -8 -30 -5 -6
3 -10 -3 -10 -14 0 -25 -9 -26 -55 -7 -36 15 -39 14 -35 -18 1 -11 -3 -16 -12
-14 -7 3 -12 13 -12 22 1 12 -4 16 -20 14 -11 -2 -24 -7 -27 -12 -9 -12 -31 3
-23 16 4 6 1 9 -6 6 -20 -6 -24 -28 -6 -28 25 0 19 -20 -6 -22 -13 -1 -30 -2
-38 -3 -8 -1 -25 -6 -37 -13 -30 -17 -37 -15 -18 4 9 9 13 19 10 22 -3 4 -10
0 -15 -8 -7 -12 -12 -12 -22 -2 -9 9 -8 15 8 27 17 14 17 15 0 9 -10 -4 -21
-1 -26 7 -15 23 -24 0 -13 -34 5 -18 6 -41 2 -52 -7 -20 -10 -18 -13 8 0 6 -8
12 -16 12 -8 0 -18 4 -21 9 -4 4 -15 3 -25 -4 -16 -10 -16 -11 -1 -6 9 3 17 2
17 -3 0 -22 -77 -28 -95 -8 -5 7 -32 13 -58 14 -26 1 -54 7 -62 13 -20 16 -40
3 -24 -16 16 -19 -7 -19 -43 0 -16 8 -28 11 -28 5 0 -17 -20 -9 -20 9 -1 14
-3 14 -19 -5 -22 -27 -31 -29 -31 -8 0 19 -16 19 -24 0 -3 -8 -13 -15 -21 -15
-9 0 -13 5 -10 11 8 13 -37 -12 -47 -26 -5 -6 -8 -5 -8 4 0 11 -3 11 -15 1
-12 -10 -15 -10 -15 2 0 8 -12 15 -27 16 -20 1 -24 -1 -14 -7 19 -12 -15 -23
-49 -15 -29 7 -33 7 -84 1 -22 -2 -44 -11 -52 -21 -12 -17 -13 -16 -24 3 -13
25 -31 23 -45 -3 -5 -11 -16 -21 -24 -24 -9 -3 -11 0 -6 9 5 8 4 11 -1 6 -5
-5 -9 -16 -9 -25 0 -25 -42 -28 -49 -4 -4 10 -13 19 -21 19 -10 0 -12 -4 -5
-12 7 -8 2 -12 -19 -12 -20 0 -28 4 -24 14 3 7 0 13 -7 13 -9 0 -9 4 1 17 13
15 12 15 -12 -1 -31 -20 -97 -27 -107 -12 -3 6 -9 0 -12 -14 -4 -16 -13 -25
-25 -26 -36 -1 -56 -15 -50 -35 4 -11 2 -19 -5 -19 -6 0 -9 4 -6 9 3 5 -8 15
-25 24 -17 8 -26 17 -21 21 6 3 13 2 17 -4 10 -17 25 -11 25 10 0 11 5 20 12
20 6 0 8 3 5 6 -4 4 -13 2 -21 -5 -8 -6 -26 -10 -40 -7 -14 3 -26 0 -26 -5 0
-6 -4 -7 -10 -4 -15 9 -12 -8 6 -33 14 -21 14 -22 -5 -22 -11 0 -26 6 -33 13
-13 14 -58 11 -58 -4 0 -5 5 -9 10 -9 6 0 10 -4 10 -9 0 -5 -11 -8 -25 -8 -28
0 -40 11 -29 28 5 8 9 8 14 -1 5 -8 9 -5 13 9 6 25 0 26 -25 4 -17 -15 -19
-15 -38 2 -11 10 -23 15 -27 12 -3 -4 -1 -7 6 -7 7 0 9 -4 6 -10 -9 -15 -25
-12 -25 6 0 8 -5 12 -10 9 -6 -4 -7 -12 -4 -18 5 -8 3 -8 -7 1 -15 14 -33 16
-24 3 3 -5 0 -13 -6 -16 -5 -4 -8 -13 -5 -20 3 -8 0 -15 -7 -18 -21 -7 -57 5
-57 19 0 7 -12 17 -26 20 -18 5 -22 9 -13 15 7 4 -7 7 -34 6 -26 -1 -47 -5
-47 -9 0 -4 -7 -14 -16 -22 -14 -15 -14 -17 0 -22 9 -3 16 -9 16 -13 0 -9 -71
-5 -79 6 -10 13 -44 9 -63 -7 -38 -34 -47 -39 -53 -31 -3 5 4 13 16 16 15 5
18 10 10 18 -8 8 -14 8 -23 -1 -15 -15 -48 -16 -48 -2 0 20 -24 36 -47 32 -13
-2 -23 -11 -23 -18 0 -8 -9 -14 -20 -14 -11 0 -20 -4 -20 -10 0 -14 23 -13 38
2 6 6 15 8 19 4 4 -4 1 -12 -7 -17 -11 -8 -7 -9 14 -4 26 5 28 4 17 -9 -8 -9
-19 -16 -26 -16 -8 0 -15 -5 -17 -12 -5 -13 -48 25 -48 42 0 6 -7 10 -16 10
-8 0 -12 -5 -9 -11 4 -6 -1 -17 -11 -24 -23 -17 -68 -20 -58 -4 4 7 1 10 -7 7
-8 -3 -22 1 -31 10 -13 10 -18 11 -18 3 0 -7 -8 -11 -17 -9 -10 1 -24 -1 -30
-5 -9 -5 -13 -3 -13 7 0 9 -7 16 -15 16 -8 0 -15 -7 -15 -15 0 -19 -19 -20
-26 -1 -5 14 -12 42 -13 59 -1 5 -8 1 -17 -7 -8 -9 -23 -16 -32 -17 -12 0 -11
-3 6 -9 27 -12 28 -16 1 -23 -15 -4 -30 4 -52 26 -17 17 -28 24 -24 15 3 -10
2 -20 -4 -24 -6 -4 -5 -12 3 -22 11 -13 10 -15 -5 -9 -15 6 -16 4 -6 -14 6
-11 8 -23 5 -27 -3 -3 -6 1 -6 8 0 7 -3 10 -7 6 -4 -3 -13 4 -21 16 -7 13 -11
16 -8 6 7 -23 -3 -29 -27 -17 -12 7 -17 7 -13 1 11 -18 -4 -37 -29 -38 -34 -2
-32 14 3 19 26 4 26 4 5 12 -13 4 -20 11 -17 16 3 5 0 9 -5 9 -6 0 -11 8 -12
18 0 14 -2 14 -9 -3 -5 -11 -9 -15 -10 -10 0 6 -5 3 -10 -7 -10 -15 -50 -15
-50 1 0 4 -14 6 -31 3 -26 -4 -30 -8 -25 -28 5 -17 1 -26 -14 -34 -15 -8 -19
-17 -14 -32 4 -15 2 -19 -7 -16 -9 3 -13 17 -11 39 3 32 3 33 -12 14 -18 -23
-20 -17 -6 19 7 20 6 26 -4 26 -8 0 -17 -6 -20 -12 -5 -10 -7 -10 -12 0 -3 6
-10 10 -15 6 -14 -8 -11 -24 5 -24 17 0 31 -18 22 -27 -3 -3 -13 0 -21 7 -12
10 -19 10 -27 2 -9 -9 -9 -12 1 -12 11 0 11 -3 1 -15 -11 -14 -14 -13 -25 1
-11 15 -12 15 -18 -6 -3 -12 -11 -20 -19 -18 -7 3 -25 1 -40 -3 -19 -5 -28 -4
-28 4 0 8 -3 8 -12 -1 -15 -15 -28 -15 -28 -1 0 5 5 7 12 3 8 -5 9 -2 5 10 -4
10 -7 20 -7 22 0 2 -7 4 -16 4 -8 0 -12 5 -9 10 3 6 1 10 -5 10 -6 0 -8 -10
-4 -25 6 -25 5 -25 -22 -14 -73 29 -76 32 -70 61 5 27 -6 38 -18 19 -3 -5 -15
-7 -26 -4 -11 3 -20 0 -20 -6 0 -6 5 -10 12 -9 6 2 14 -5 16 -14 2 -14 -3 -18
-21 -18 -14 0 -32 -3 -41 -6 -11 -4 -16 -1 -16 11 0 15 -2 15 -15 1 -8 -8 -15
-23 -16 -33 0 -17 -1 -17 -8 1 -7 17 -8 17 -23 2 -13 -13 -22 -14 -44 -5 -22
8 -25 12 -14 19 8 5 11 13 6 17 -4 4 -14 -1 -22 -11 -8 -11 -14 -14 -14 -7 0
16 -49 -20 -50 -36 0 -23 -28 -14 -32 10 -3 19 -9 22 -41 21 -25 -1 -47 -9
-60 -23 -21 -21 -21 -21 -1 -21 11 0 26 6 33 13 10 10 11 9 6 -5 -6 -15 -1
-18 29 -18 20 0 36 -5 36 -11 0 -8 4 -8 14 0 10 8 16 9 21 1 8 -14 -10 -20
-70 -23 -43 -2 -50 1 -47 16 4 21 -11 22 -28 2 -7 -9 -20 -15 -29 -14 -29 3
-34 -1 -21 -16 10 -12 9 -15 -8 -15 -11 0 -25 7 -32 16 -11 12 -11 15 0 12 7
-2 15 3 17 10 3 6 -2 12 -11 12 -9 0 -16 7 -16 16 0 14 7 16 40 11 38 -5 55 5
28 16 -10 4 -10 6 0 6 23 2 12 19 -13 19 -14 0 -25 -4 -25 -9 0 -5 -7 -6 -16
-2 -11 4 -12 8 -4 13 7 5 2 9 -15 12 -19 4 -25 2 -21 -8 3 -8 0 -14 -7 -14 -9
0 -9 -2 0 -8 8 -5 9 -13 3 -22 -14 -21 -12 -30 5 -30 22 0 18 -31 -4 -37 -11
-3 -17 -11 -15 -18 7 -18 -33 -26 -47 -8 -9 10 -14 11 -19 3 -5 -7 -10 -2 -14
13 -5 23 -38 42 -50 29 -10 -10 -6 -30 7 -35 6 -2 2 -2 -10 -1 -12 2 -24 -2
-27 -9 -3 -6 -4 1 -1 16 6 28 6 28 -39 24 -43 -5 -46 -3 -71 33 -16 22 -24 44
-19 51 4 8 3 9 -4 5 -7 -4 -12 -13 -12 -21 0 -16 -40 -46 -52 -39 -4 3 -8 0
-8 -6 0 -7 7 -10 15 -7 8 4 17 2 20 -3 4 -6 15 -10 26 -10 10 0 19 -4 19 -9 0
-5 -14 -8 -30 -6 -22 3 -33 -1 -38 -13 -10 -24 -32 -26 -32 -2 0 11 5 20 10
20 7 0 7 6 0 20 -6 11 -20 20 -30 20 -11 0 -20 5 -20 10 0 6 5 10 11 10 8 0 8
5 -1 15 -15 18 -40 20 -40 2 0 -7 6 -19 13 -26 10 -11 10 -14 0 -18 -7 -3 -13
-11 -13 -19 0 -26 -25 -14 -27 13 -1 18 2 22 7 12 11 -17 25 -5 17 14 -3 10
-15 13 -31 10 -26 -5 -35 -26 -16 -38 16 -10 12 -20 -19 -38 -40 -23 -60 -22
-33 3 12 11 26 20 32 20 5 0 10 5 10 10 0 13 -27 13 -35 -1 -5 -6 -12 -4 -20
8 -7 10 -17 15 -21 10 -4 -4 -2 -13 4 -19 17 -17 15 -31 -4 -24 -21 8 -54 -11
-54 -32 0 -12 -2 -14 -8 -4 -11 17 -101 20 -111 3 -7 -10 -12 -8 -24 9 -11 16
-22 21 -36 17 -12 -3 -24 -1 -27 4 -9 15 -23 10 -35 -12 -7 -13 -7 -19 -1 -15
6 3 14 2 17 -4 4 -6 16 -8 27 -4 16 5 20 3 15 -9 -3 -9 -1 -17 5 -19 7 -3 8
-10 4 -17 -6 -9 -11 -9 -22 0 -8 6 -14 9 -14 5 0 -3 -10 4 -22 16 -23 23 -20
24 -55 -29 -12 -17 -12 -17 -6 2 3 11 12 27 20 36 20 24 6 47 -30 51 -22 2
-35 10 -42 25 -10 23 -37 41 -32 21 1 -6 -7 -11 -19 -13 -16 -1 -20 3 -17 16
5 18 -2 22 -71 32 -21 3 -30 0 -33 -12 -6 -22 -63 -28 -63 -6 0 8 -4 15 -9 15
-5 0 -7 -9 -4 -20 6 -23 0 -25 -28 -10 -15 8 -19 7 -19 -4 0 -7 -7 -16 -15
-20 -8 -3 -15 -1 -15 3 0 11 -40 2 -59 -13 -20 -16 -44 -13 -61 6 -8 9 -25 19
-37 23 -20 5 -23 3 -23 -18 0 -24 -2 -25 -42 -19 -38 5 -42 3 -30 -10 11 -14
7 -17 -25 -23 -21 -3 -49 -9 -63 -11 -22 -5 -23 -4 -9 8 21 18 31 58 14 58 -7
0 -15 5 -17 11 -2 7 -12 7 -31 0 -15 -6 -34 -8 -42 -5 -8 4 -15 1 -15 -5 0 -6
11 -13 25 -17 28 -7 33 -29 9 -38 -23 -9 -8 -25 18 -18 14 3 19 2 14 -7 -4 -6
-22 -10 -42 -8 -37 5 -56 -9 -33 -24 11 -7 9 -9 -7 -9 -12 0 -24 7 -28 15 -3
8 -15 15 -26 15 -21 0 -28 19 -7 22 6 0 17 2 22 3 6 2 17 3 25 4 24 3 -30 23
-75 28 -22 2 -63 4 -91 3 -44 0 -52 3 -57 20 -7 27 -26 25 -37 -4 -5 -13 -14
-27 -19 -31 -18 -10 -12 -22 10 -21 14 1 25 -8 30 -23 9 -22 7 -23 -18 -16
-16 4 -40 7 -55 6 -15 -1 -29 3 -32 8 -10 15 5 41 23 42 11 0 12 2 3 6 -10 4
-8 8 5 18 20 15 16 24 -16 30 -12 2 -21 -1 -21 -9 0 -8 -10 -11 -30 -8 -19 3
-30 0 -30 -8 0 -8 9 -10 26 -6 19 5 25 3 21 -6 -2 -7 -12 -12 -21 -12 -9 1
-16 -4 -16 -12 0 -8 -5 -14 -11 -14 -6 0 -9 6 -6 13 2 6 -2 18 -9 25 -8 7 -14
10 -14 6 0 -4 -8 0 -17 9 -24 20 -59 26 -55 9 1 -8 -2 -11 -8 -7 -20 13 -70
-6 -70 -26 0 -10 -7 -19 -15 -19 -8 0 -23 -8 -33 -18 -15 -15 -32 -18 -85 -16
-37 1 -67 -2 -67 -7 0 -5 -4 -9 -10 -9 -5 0 -10 7 -10 15 0 9 9 15 24 15 14 0
28 5 31 10 3 6 1 10 -5 10 -6 0 -8 5 -5 10 7 11 -35 31 -47 23 -5 -2 -8 0 -8
5 0 17 27 21 48 7 19 -14 32 -11 32 8 0 5 -7 7 -15 3 -8 -3 -15 -1 -15 4 0 14
-38 32 -71 34 -16 1 -29 1 -29 -1 0 -2 10 -17 22 -34 19 -26 20 -31 8 -39 -8
-6 -22 -9 -30 -8 -8 0 -23 -2 -32 -6 -16 -7 -24 -3 -64 33 -9 8 -26 11 -44 7
-17 -3 -30 -1 -30 4 0 6 -6 10 -12 10 -7 0 3 -14 22 -29 19 -16 37 -29 40 -29
25 2 40 -4 40 -16 0 -15 -37 -32 -47 -22 -4 3 -1 6 5 6 7 0 12 5 12 11 0 6 -6
9 -14 6 -25 -10 -86 12 -86 31 -1 16 -2 16 -13 0 -10 -13 -17 -14 -32 -5 -48
28 -81 34 -96 18 -8 -9 -13 -20 -11 -26 1 -5 -4 -2 -11 8 -20 24 -37 21 -37
-7 0 -19 -4 -23 -20 -19 -11 3 -20 9 -20 14 0 5 -6 9 -14 9 -8 0 -18 5 -22 12
-4 7 -3 8 4 4 7 -4 12 -2 12 4 0 14 -42 3 -52 -14 -4 -7 -9 -4 -14 7 -6 16
-35 25 -33 10 3 -19 -2 -36 -8 -30 -3 4 -17 0 -31 -9 -28 -18 -82 -27 -82 -14
0 6 9 10 20 10 11 0 30 10 42 22 20 20 20 22 4 34 -10 7 -25 10 -33 7 -11 -4
-14 0 -11 17 2 13 -3 25 -11 28 -9 3 -11 -1 -6 -17 5 -16 3 -20 -9 -15 -9 3
-16 1 -16 -5 0 -6 9 -11 20 -11 23 0 23 0 10 -35 -7 -18 -15 -25 -25 -21 -8 3
-22 9 -30 12 -10 4 -15 0 -15 -12 0 -16 -2 -17 -10 -4 -6 10 -10 11 -10 3 0
-7 -9 -13 -20 -13 -11 0 -20 -6 -20 -12 0 -7 -11 0 -25 15 -33 35 -46 35 -35
-2 9 -34 3 -46 -17 -30 -9 8 -10 15 -3 24 8 9 4 11 -16 7 -16 -3 -21 -7 -14
-12 9 -6 9 -9 0 -15 -7 -4 -15 -2 -19 4 -5 7 -16 9 -27 4 -17 -6 -17 -5 -5 10
12 15 12 17 -1 12 -8 -3 -28 -1 -44 5 -28 11 -28 12 -10 26 11 8 28 12 37 9
24 -8 32 10 18 37 -10 18 -8 24 10 40 13 9 20 22 16 28 -10 16 -25 12 -19 -5
4 -9 0 -15 -9 -15 -10 0 -17 -11 -19 -32 -3 -31 -5 -33 -41 -31 -22 2 -35 -2
-32 -7 3 -5 -6 -12 -20 -15 -14 -3 -36 -7 -49 -10 -14 -3 -28 -1 -31 5 -3 5
-13 10 -21 10 -10 0 -13 -7 -8 -25 8 -32 -21 -46 -40 -19 -12 15 -16 16 -30 5
-8 -7 -14 -17 -13 -21 1 -4 -2 -7 -8 -7 -5 1 -9 7 -7 14 3 15 -14 17 -23 3 -9
-15 -22 -12 -44 11 -12 13 -21 17 -26 10 -3 -6 -3 -11 2 -11 4 0 0 -5 -10 -11
-22 -13 -47 4 -47 31 0 25 -26 43 -52 37 -13 -4 -26 0 -33 10 -16 22 -33 9
-41 -33 -5 -25 -11 -34 -21 -30 -8 3 -23 1 -33 -4 -13 -7 -21 -7 -25 0 -3 5 1
10 10 10 9 0 13 5 10 10 -4 6 -14 9 -22 8 -9 -2 -18 3 -20 9 -3 9 5 11 29 8
32 -5 32 -5 8 6 -27 13 -45 12 -73 -2 -16 -9 -16 -12 -2 -25 8 -8 19 -12 25
-9 5 3 10 1 10 -4 0 -19 -5 -26 -14 -23 -5 2 -16 0 -24 -3 -12 -4 -8 -11 18
-26 18 -12 42 -23 54 -25 11 -2 23 -7 27 -11 14 -15 14 -46 0 -51 -10 -3 -12
1 -8 17 4 16 2 21 -8 18 -7 -3 -21 2 -32 12 -23 22 -77 41 -102 36 -14 -3 -18
1 -14 16 4 14 1 18 -10 13 -8 -3 -18 -1 -22 5 -3 6 -14 11 -24 11 -10 0 -24 7
-31 15 -16 19 -30 19 -30 0 0 -14 -31 -20 -87 -18 -19 1 -16 -6 9 -27 l22 -18
-27 3 c-16 2 -35 9 -43 16 -11 9 -20 9 -40 0 -34 -15 -51 -14 -58 5 -4 11 -2
15 7 11 8 -3 20 -1 28 4 11 6 11 11 1 21 -9 9 -15 9 -23 1 -7 -7 -21 -8 -41
-2 -17 4 -36 5 -42 2 -18 -12 -90 -12 -113 -1 -12 6 -29 8 -39 4 -16 -6 -16
-8 2 -20 10 -8 16 -17 13 -20 -11 -11 -69 -13 -116 -5 -32 6 -50 5 -60 -3 -8
-6 -10 -14 -6 -17 4 -3 13 -15 19 -26 7 -11 19 -19 29 -17 10 2 14 -1 10 -7
-7 -13 -41 -9 -56 6 -15 15 -39 5 -33 -12 3 -7 0 -16 -7 -21 -8 -5 -10 -3 -4
6 6 10 4 12 -8 7 -20 -7 -22 4 -5 21 6 6 8 15 4 19 -4 4 -10 2 -14 -4 -8 -13
-52 -6 -52 7 0 8 49 25 63 22 4 -1 7 10 7 25 0 22 2 25 10 13 5 -8 10 -10 10
-4 0 6 13 9 30 6 18 -3 30 0 30 7 0 6 -5 11 -11 11 -8 0 -8 4 -1 13 8 9 7 13
-6 13 -9 1 -24 3 -32 5 -8 2 -15 -3 -15 -11 0 -22 -36 -40 -67 -34 -14 3 -29
0 -33 -5 -3 -6 1 -11 9 -11 9 0 16 -7 16 -16 0 -12 -6 -15 -22 -10 -13 3 -27
6 -31 6 -5 0 -5 5 -2 10 3 6 -1 17 -10 26 -13 13 -18 14 -31 3 -8 -7 -13 -18
-10 -25 3 -7 1 -16 -4 -19 -22 -14 -4 -41 34 -51 21 -5 27 -4 22 4 -9 16 7 43
19 34 16 -11 36 -62 25 -62 -6 0 -10 7 -10 15 0 8 -5 15 -11 15 -6 0 -9 -6 -6
-13 3 -9 -4 -12 -28 -9 -18 2 -41 -1 -52 -6 -26 -14 -51 1 -35 21 7 7 9 17 5
21 -4 4 -1 11 7 17 13 8 13 10 0 19 -13 8 -12 10 3 10 10 0 17 8 17 20 0 17
-4 18 -25 10 -16 -6 -25 -6 -25 0 0 6 -5 10 -11 10 -6 0 -8 -9 -4 -20 9 -30
-12 -24 -29 8 -8 15 -18 26 -23 24 -4 -2 -9 3 -11 10 -2 8 8 14 28 14 16 1 30
-3 30 -8 0 -6 7 -5 15 2 21 18 9 27 -47 35 -33 5 -48 4 -48 -4 0 -6 -9 -11
-20 -11 -11 0 -20 -4 -20 -10 0 -5 7 -10 16 -10 10 0 14 -6 10 -15 -3 -8 -1
-15 5 -15 6 0 8 -4 5 -8 -3 -5 4 -8 16 -8 12 1 23 -5 25 -11 6 -17 -39 -17
-55 -1 -9 9 -12 9 -12 -3 -1 -10 -4 -9 -11 5 -8 13 -8 20 1 26 8 5 5 9 -9 13
-12 3 -19 1 -15 -5 3 -5 -2 -18 -12 -29 -17 -19 -17 -19 -28 3 -13 26 -61 35
-70 13 -3 -9 0 -15 9 -16 8 -1 20 -2 27 -3 21 -2 21 -26 -1 -26 -11 0 -23 -4
-26 -10 -3 -6 -23 2 -46 17 -34 22 -38 28 -24 36 9 5 23 6 31 3 11 -4 14 0 12
16 -2 11 3 23 11 26 8 2 11 1 8 -4 -3 -5 9 -9 26 -9 18 0 36 6 40 13 7 10 12
10 23 1 11 -9 14 -8 14 4 0 8 5 17 12 19 8 3 6 7 -4 11 -10 3 -27 -2 -40 -13
-15 -12 -29 -15 -38 -10 -20 12 -49 4 -71 -22 -11 -13 -18 -17 -14 -10 3 6 1
12 -4 12 -6 0 -11 -5 -11 -11 0 -5 -4 -7 -10 -4 -5 3 -18 1 -27 -4 -17 -10
-17 -10 -1 -11 21 0 13 -30 -8 -30 -19 0 -18 -9 5 -47 14 -22 16 -33 8 -36
-18 -6 -47 4 -47 15 0 6 7 7 16 4 12 -5 14 -1 9 16 -8 25 -59 71 -63 57 -2 -5
-8 -9 -13 -9 -4 0 -6 8 -2 18 5 14 3 13 -10 -3 -14 -18 -16 -18 -22 -3 -4 9
-4 22 -1 27 4 6 -14 1 -39 -10 -25 -11 -50 -17 -55 -14 -13 8 -13 -8 1 -22 7
-7 7 -13 0 -17 -5 -4 -8 -13 -4 -21 4 -11 -3 -15 -24 -15 -40 0 -45 7 -27 42
12 23 12 28 2 22 -20 -13 -48 -15 -48 -5 0 5 10 13 22 17 20 6 21 7 2 17 -10
6 -31 11 -46 12 -23 1 -25 -1 -17 -18 10 -17 9 -17 -13 -6 -13 7 -23 13 -24
13 0 1 -8 -5 -16 -12 -13 -10 -17 -10 -22 3 -3 9 -18 15 -36 15 -19 0 -33 6
-37 16 -4 11 -8 12 -13 4 -6 -9 -13 -9 -29 -1 -12 7 -26 9 -32 6 -13 -8 -1
-47 20 -61 13 -10 13 -14 1 -29 -8 -9 -23 -21 -35 -25 -19 -8 -19 -9 3 -9 31
-1 26 -35 -6 -39 -28 -4 -28 -18 1 -26 l22 -6 -22 -15 c-17 -12 -23 -26 -23
-56 0 -22 -4 -38 -9 -35 -11 7 -21 -56 -14 -85 6 -22 7 -22 14 -3 5 12 8 -4 8
-43 1 -74 0 -78 -16 -77 -7 1 -13 -9 -13 -22 0 -14 6 -24 14 -24 15 0 27 -55
15 -67 -13 -14 -23 -87 -10 -79 6 4 11 0 12 -11 0 -10 2 -34 4 -53 2 -19 6
-98 10 -174 3 -77 10 -147 14 -155 5 -9 11 -41 15 -71 18 -151 44 -262 73
-305 18 -27 16 -49 -7 -76 -17 -21 -21 -22 -30 -9 -5 8 -11 19 -13 24 -2 5
-11 7 -20 3 -19 -7 -20 -5 40 -69 12 -14 32 -18 79 -18 l63 0 -3 -61 c-2 -59
-16 -83 -41 -76 -19 6 -30 57 -17 77 19 31 15 38 -28 42 -22 2 -40 1 -40 -2 1
-19 29 -83 45 -100 19 -21 38 -110 23 -110 -5 0 -7 -4 -4 -9 3 -5 -1 -11 -9
-15 -8 -3 -15 -2 -15 3 0 17 -52 22 -69 7 -37 -33 -161 -61 -161 -36 0 6 11
10 24 10 31 0 44 30 16 37 -11 3 -20 12 -20 20 0 8 -6 13 -12 10 -7 -2 -12
-12 -10 -22 3 -17 2 -17 -13 -2 -9 9 -13 21 -10 27 3 5 -2 9 -12 8 -10 0 -28
0 -40 0 -21 2 -21 4 10 35 l32 32 -22 45 c-27 56 -28 68 -4 46 11 -10 23 -31
26 -47 10 -47 34 -37 28 11 -4 25 1 62 12 96 13 41 14 59 6 67 -8 8 -11 6 -11
-9 0 -10 -7 -27 -14 -37 -13 -17 -14 -17 -20 0 -4 10 -3 19 3 21 13 4 -9 42
-25 42 -12 0 -34 42 -34 65 0 8 -6 15 -14 15 -26 0 -28 20 -4 29 15 7 18 10 7
10 -18 1 -29 21 -29 51 0 11 -12 56 -26 101 -14 45 -34 128 -44 183 -24 133
-43 206 -53 206 -5 0 -6 -8 -3 -17 2 -10 12 -63 21 -118 18 -109 36 -205 59
-305 8 -36 15 -78 14 -95 0 -16 14 -59 31 -95 17 -36 31 -71 31 -77 0 -18 -19
-16 -27 3 -3 8 -16 20 -29 25 -15 5 -24 17 -24 30 0 14 -5 19 -14 16 -9 -4
-13 -1 -10 7 3 7 1 23 -5 37 l-9 24 -11 -27 c-13 -34 -14 -34 -45 -4 -32 28
-33 46 -5 46 15 0 19 4 15 16 -3 9 -6 22 -6 30 0 19 -39 18 -46 -1 -4 -8 -10
-15 -15 -15 -15 0 -10 32 7 45 14 10 14 15 4 34 -7 14 -17 20 -26 17 -8 -3
-13 -2 -9 3 10 18 -7 41 -31 41 -25 0 -33 15 -12 22 17 6 -12 66 -35 72 -13 3
-17 10 -14 20 4 11 1 16 -12 16 -26 0 -31 9 -21 36 8 19 6 24 -6 24 -8 0 -17
7 -20 15 -9 23 -23 18 -36 -12 -9 -22 -12 -24 -15 -10 -3 9 -8 17 -11 17 -14
0 -13 80 0 80 8 0 6 5 -4 11 -10 5 -18 14 -18 19 0 5 8 7 18 4 16 -5 16 -5 0
8 -26 22 -20 71 9 85 14 7 31 9 39 6 10 -3 12 0 8 10 -3 9 -13 13 -24 10 -25
-7 -49 45 -28 59 9 7 10 11 2 14 -12 5 -11 179 0 266 3 20 1 50 -4 67 -4 16
-6 32 -3 35 3 3 7 22 9 42 3 29 -1 37 -16 41 -19 5 -37 33 -20 33 5 0 21 12
35 28 22 22 25 33 20 62 -4 19 -9 69 -13 110 -6 62 -10 75 -24 72 -17 -3 -26
15 -33 67 -6 49 -15 70 -41 96 -17 17 -24 35 -24 63 0 21 -3 42 -7 46 -4 4 -9
18 -10 31 -3 19 3 28 22 37 26 12 37 58 13 58 -8 0 -9 3 -2 10 22 22 39 1 39
-45 0 -25 2 -45 5 -45 3 0 13 16 23 36 13 26 14 40 7 54 -7 12 -8 62 -3 137 7
115 7 207 1 269 -2 25 -7 30 -25 26 -15 -3 -20 -10 -18 -23 2 -10 0 -19 -5
-19 -5 0 -7 -6 -4 -13 7 -19 -37 -19 -52 0 -10 15 -12 13 -19 -15 -4 -20 -2
-38 5 -47 6 -7 13 -26 14 -41 2 -16 9 -30 16 -32 9 -3 11 1 7 12 -4 11 -3 15
4 11 6 -4 9 -19 8 -33 -2 -15 1 -34 6 -42 15 -24 14 -58 -1 -71 -8 -6 -14 -26
-14 -44 0 -33 -1 -33 -29 -22 -16 6 -33 20 -36 31 -4 13 -8 16 -12 9 -9 -24
-23 -13 -17 14 6 22 4 25 -11 19 -15 -5 -16 -4 -6 8 14 17 23 88 10 80 -5 -3
-9 1 -9 8 -1 62 -11 192 -18 228 -12 69 -34 59 -49 -20 -25 -142 -40 -516 -21
-535 4 -4 13 2 20 14 7 12 18 21 25 21 7 0 13 5 13 10 0 14 20 13 53 -2 28
-13 40 -55 12 -45 -8 4 -24 -6 -39 -23 -29 -35 -42 -38 -49 -10 -3 11 -10 20
-16 20 -7 0 -10 -47 -9 -147 1 -82 -1 -211 -5 -288 -6 -120 -5 -145 10 -178
14 -32 15 -45 5 -85 -7 -26 -14 -64 -16 -84 -3 -20 -13 -52 -22 -70 -15 -28
-18 -66 -20 -263 -1 -139 -6 -250 -13 -280 -38 -154 -71 -586 -49 -628 5 -9 5
-17 0 -17 -16 0 -70 30 -83 46 -12 14 -16 9 -29 -45 -17 -69 -32 -79 -40 -29
-3 18 -11 32 -18 31 -17 -4 -27 44 -12 62 6 8 9 23 6 33 -4 13 -1 22 9 26 14
5 16 20 13 86 -3 77 -2 80 19 80 28 0 40 20 22 34 -15 11 -18 26 -19 110 -1
42 -3 47 -21 43 -10 -3 -19 -2 -19 3 0 8 75 24 103 21 34 -4 16 17 -20 24
l-38 6 0 54 c0 30 4 55 9 55 5 0 6 60 3 137 -4 76 -3 143 1 149 4 6 17 16 28
22 16 8 23 25 28 63 9 63 20 86 45 94 14 4 19 13 17 33 -3 26 -5 27 -58 25
-33 -2 -61 2 -73 11 -17 12 -17 18 -6 72 7 32 14 79 17 104 2 25 9 55 16 67
14 28 12 29 -32 36 -70 12 -75 14 -75 33 0 21 16 25 100 28 53 1 51 -3 42 56
-1 11 17 66 26 77 5 7 7 22 4 33 -3 10 1 24 9 31 19 16 18 28 -3 24 -77 -15
-81 -15 -87 10 -4 14 -11 25 -17 25 -5 0 1 15 15 33 26 34 33 57 17 57 -5 0
-11 -9 -14 -21 l-6 -21 -21 20 c-12 11 -29 18 -37 15 -11 -4 -14 -2 -11 8 3 8
-1 29 -8 48 -8 18 -14 44 -14 57 0 36 -21 76 -34 64 -8 -6 -12 -2 -13 13 -2
24 33 87 49 87 6 0 8 9 5 20 -5 21 2 25 66 34 21 4 50 13 65 20 l27 15 -25 9
c-16 6 -35 6 -53 -1 -15 -5 -31 -6 -34 -3 -4 4 -7 30 -7 58 0 49 -2 55 -49 99
-47 45 -49 47 -28 58 28 15 27 31 -1 31 -17 0 -19 3 -9 9 10 7 11 13 1 31 -7
12 -9 36 -6 53 4 17 1 36 -6 44 -10 12 -8 18 11 32 22 17 22 18 5 25 -14 5
-15 9 -6 15 7 4 14 25 16 46 2 21 10 43 18 49 11 8 13 18 7 34 -5 13 -5 21 -1
18 10 -6 142 28 199 52 28 11 43 23 43 35 0 19 -25 23 -33 5 -5 -14 -112 -42
-126 -33 -5 3 -11 -1 -14 -7 -2 -7 -7 1 -11 18 -4 18 -17 36 -29 42 -12 6 -16
11 -9 11 6 1 12 7 12 15 0 8 14 19 30 25 17 5 30 15 30 20 0 6 -6 8 -14 5 -8
-3 -22 8 -34 28 -18 28 -19 34 -6 41 8 5 12 12 9 17 -3 5 -1 11 5 15 6 3 10
-4 10 -17 0 -22 1 -22 15 5 15 30 11 57 -10 57 -7 0 -16 -8 -20 -17 -6 -16 -8
-16 -25 4 -10 13 -25 23 -34 23 -9 0 -16 6 -16 14 0 8 -7 16 -15 20 -8 3 -15
16 -15 30 0 19 8 27 36 36 19 7 49 10 65 8 16 -3 29 -1 29 4 0 4 -13 8 -30 8
-19 0 -30 5 -30 14 0 8 -6 16 -12 19 -7 2 -10 8 -6 12 4 4 13 3 20 -2 16 -13
56 -10 128 10 l55 15 -55 2 c-30 1 -61 2 -67 1 -7 -1 -13 3 -13 8 0 5 -12 16
-27 23 -17 8 -27 22 -29 38 -2 28 -9 56 -19 83 -6 14 -4 16 11 10 12 -4 15 -3
10 6 -5 7 -1 18 10 26 17 12 20 11 24 -12 7 -39 26 -39 26 0 0 27 -6 37 -28
50 -26 15 -28 15 -39 -4 -10 -20 -11 -20 -30 -3 -15 13 -19 14 -19 3 0 -12 -2
-12 -9 0 -10 16 -3 48 16 76 7 11 13 27 13 36 0 12 7 15 26 11 17 -3 23 -9 20
-19 -3 -8 -6 -24 -6 -36 0 -18 -2 -19 -10 -7 -8 12 -10 12 -10 1 0 -15 29 -40
47 -41 7 0 10 7 7 15 -4 9 0 15 10 15 19 0 21 11 4 28 -9 9 -8 12 6 12 9 0 14
5 11 10 -4 6 -11 8 -16 5 -5 -4 -9 0 -9 8 0 8 12 18 26 21 14 4 24 12 21 19
-5 16 22 43 53 52 38 12 69 35 75 56 6 17 9 16 30 -15 20 -30 24 -49 28 -163
3 -92 9 -136 21 -158 9 -16 16 -35 16 -41 0 -6 8 -22 18 -35 24 -31 49 -154
61 -299 18 -203 32 -451 26 -461 -4 -5 -1 -9 4 -9 6 0 11 6 11 14 0 21 18 30
34 17 9 -7 16 -7 26 2 10 9 11 9 6 0 -5 -8 -1 -13 9 -13 9 0 14 4 11 9 -9 14
-16 133 -9 145 4 5 6 29 4 53 -2 34 0 42 12 37 8 -3 17 2 20 10 4 9 16 16 28
16 12 0 19 3 16 7 -4 3 2 17 14 29 11 12 23 40 26 63 3 23 11 41 17 41 6 0 4
5 -4 10 -10 6 -17 5 -23 -5 -11 -21 -27 -18 -27 4 0 11 -4 23 -10 26 -5 3 -10
13 -10 21 0 8 -9 23 -20 34 -21 21 -50 27 -50 10 0 -5 -4 -10 -10 -10 -19 0
-11 48 10 55 11 3 20 11 20 16 0 15 28 10 38 -7 7 -13 18 -14 55 -9 26 4 47 9
47 12 0 2 -7 17 -15 33 l-16 30 40 0 c26 0 41 5 45 16 3 9 12 14 19 11 8 -3
20 -1 28 4 11 7 11 9 -4 9 -19 0 -38 38 -35 73 1 12 -2 36 -5 52 -5 19 -2 40
8 59 14 26 13 30 -6 54 -19 24 -19 27 -3 32 16 6 16 8 -4 28 -12 12 -17 22
-12 22 6 0 10 5 10 10 0 6 -9 10 -19 10 -10 0 -21 7 -24 14 -4 10 -1 13 9 9
10 -4 12 0 7 13 -6 16 -5 17 9 6 19 -16 29 -4 21 26 -3 12 -13 22 -23 22 -10
0 -21 7 -24 15 -4 11 -11 13 -23 7 -19 -9 -78 -7 -103 5 -33 14 -40 11 -40
-19 l0 -31 -23 24 c-23 23 -23 24 -5 39 22 18 15 30 -18 30 -14 0 -24 8 -28
23 -10 37 -7 75 6 79 10 4 9 14 -2 47 -12 37 -12 44 1 52 11 7 11 9 0 9 -9 0
-10 4 -4 13 14 17 25 67 16 67 -5 0 -8 10 -9 23 -3 92 -15 192 -24 195 -5 2
-10 10 -10 19 0 8 -9 27 -21 41 l-21 27 24 5 c19 5 24 14 30 60 4 30 8 87 8
125 1 84 6 105 26 105 8 0 12 -4 9 -10 -3 -6 1 -7 9 -4 9 3 16 1 16 -5 0 -6
-4 -11 -10 -11 -13 0 -13 -210 0 -244 6 -17 6 -26 0 -26 -14 0 -12 -23 4 -46
14 -19 15 -19 21 1 4 11 13 32 21 47 11 21 12 33 4 48 -6 11 -8 25 -5 30 4 6
-1 24 -9 42 -15 29 -15 32 4 45 11 8 18 19 14 24 -3 5 -1 16 6 24 8 10 7 22
-4 48 -8 20 -11 38 -8 42 4 4 7 23 8 43 3 108 5 123 14 117 6 -3 10 -2 10 4 0
5 -5 13 -11 17 -6 3 -8 15 -6 26 3 12 -1 22 -10 25 -14 5 -14 8 2 19 16 12 15
14 -8 19 -24 6 -25 9 -13 28 8 12 17 42 20 66 3 24 8 46 11 49 3 3 0 11 -6 18
-6 8 -6 14 0 18 6 4 6 18 -1 39 -5 17 -11 68 -13 112 -2 44 -5 103 -8 130 -3
28 -3 42 0 33 5 -19 23 -25 23 -7 0 21 -21 48 -34 43 -9 -4 -15 7 -19 37 -7
51 0 72 21 64 9 -3 13 -3 9 1 -4 4 -3 12 2 18 7 10 13 48 27 191 8 75 19 99
65 132 74 54 158 134 189 180 26 38 30 54 34 136 5 91 -15 244 -35 277 -6 10
-7 1 -2 -25 12 -62 8 -275 -5 -322 -19 -66 -115 -138 -137 -103 -3 5 -1 19 6
31 6 12 12 42 13 68 1 36 -4 51 -22 69 -15 15 -24 18 -26 10 -3 -7 -7 -20 -9
-28 -3 -8 -6 7 -6 34 -1 38 -4 47 -16 42 -10 -4 -15 1 -15 14 0 29 -19 63 -46
83 -23 17 -24 17 -24 -3 0 -11 -6 -20 -13 -20 -7 0 -18 -15 -26 -32 -7 -18
-15 -28 -17 -21 -3 6 1 27 9 45 16 37 7 71 -16 62 -7 -2 -23 5 -36 18 -13 12
-40 23 -60 24 -76 7 -92 11 -104 28 -12 16 -16 17 -35 5 -23 -14 -32 -38 -32
-86 0 -18 -4 -33 -9 -33 -5 0 -7 8 -4 19 3 10 0 22 -6 25 -6 4 -11 14 -11 22
0 8 4 13 9 10 5 -3 12 1 15 10 5 12 2 15 -10 10 -11 -4 -15 -2 -11 6 2 7 0 24
-6 38 l-10 25 -7 -25 c-13 -42 -11 -138 3 -144 6 -3 3 -4 -8 -3 -11 2 -19 7
-18 13 0 5 4 71 7 148 5 113 9 141 22 151 14 10 16 26 12 106 -3 52 -11 106
-18 121 -18 38 -84 68 -149 68 -50 0 -52 1 -45 23 11 35 31 70 59 102 15 17
48 61 73 99 25 37 61 83 79 101 19 19 33 43 33 57 -1 22 -2 22 -29 -10 -18
-21 -31 -29 -35 -23 -4 6 -4 16 -1 21 3 6 0 10 -8 10 -19 0 -31 -31 -16 -41
17 -10 4 -52 -21 -67 -24 -14 -26 -6 -11 46 9 29 8 32 -7 28 -21 -7 -62 62
-66 109 -1 20 -7 29 -16 27 -11 -3 -10 2 3 16 21 23 22 32 2 32 -8 0 -19 -9
-25 -20 -24 -46 -92 -8 -83 46 9 60 14 74 24 74 6 0 7 -6 2 -12 -20 -34 -13
-88 10 -69 9 7 13 30 10 71 -2 36 1 60 7 60 5 0 10 -4 10 -10 0 -16 60 -12 66
5 4 8 10 13 14 10 4 -3 13 2 20 10 15 17 30 20 30 4 0 -17 -24 -36 -40 -31 -9
3 -6 -4 7 -17 32 -31 51 -27 58 13 8 41 -8 76 -35 76 -32 0 -23 29 15 47 19 9
35 20 35 23 0 4 6 7 13 7 6 0 20 4 29 8 13 5 20 1 27 -16 5 -13 10 -22 11 -19
1 3 3 13 5 23 5 26 25 47 46 47 10 0 20 8 23 18 6 16 44 64 82 104 9 10 15 29
13 50 -2 18 2 42 9 53 12 19 12 20 23 1 11 -17 13 -16 26 15 l14 33 13 -24
c11 -22 10 -28 -11 -47 -19 -18 -23 -32 -23 -81 0 -58 -12 -140 -25 -174 -5
-14 -2 -18 14 -18 31 0 38 -43 12 -76 -20 -25 -21 -35 -15 -144 5 -76 3 -128
-4 -149 -12 -34 -10 -36 20 -20 14 8 18 8 14 0 -4 -6 -8 -26 -10 -45 -2 -26 2
-36 15 -39 18 -5 19 -54 1 -66 -23 -16 -96 -180 -111 -250 -6 -30 -15 -60 -19
-66 -4 -6 1 -2 11 8 9 11 17 30 17 42 0 32 59 145 76 145 7 0 16 11 20 25 5
20 11 24 28 20 15 -5 17 -4 7 3 -9 6 -11 17 -7 28 7 18 8 17 20 -4 11 -21 14
-22 26 -7 7 9 14 31 14 49 1 18 9 44 18 57 l17 24 2 -35 c1 -19 0 -39 -1 -45
-1 -5 -3 -58 -4 -117 -2 -61 -8 -113 -14 -121 -7 -8 -9 -32 -6 -59 3 -25 1
-61 -4 -80 -13 -47 0 -68 43 -68 18 0 46 -5 62 -11 19 -7 29 -7 31 0 5 14 28
14 51 -1 15 -9 25 -6 55 18 25 20 35 35 32 47 -3 12 0 17 8 14 7 -3 13 1 13 9
0 7 -5 10 -11 7 -6 -4 -2 3 8 15 11 12 25 22 33 22 8 0 12 4 9 9 -9 14 -57 10
-63 -5 -3 -8 -9 -12 -14 -9 -4 3 -3 17 3 30 8 19 8 28 -2 40 -10 12 -10 18 0
30 7 8 9 15 6 15 -4 0 -1 10 6 23 16 30 18 46 6 53 -5 3 0 13 12 21 17 12 19
21 14 49 -4 22 -2 40 7 50 10 12 10 17 1 23 -18 11 -33 104 -19 114 9 6 9 10
0 14 -7 2 -13 16 -13 29 0 15 4 23 10 19 6 -4 8 -10 5 -14 -2 -5 5 -27 16 -50
33 -69 38 -86 28 -104 -6 -10 -6 -17 -1 -17 10 0 9 -96 -1 -107 -4 -3 -3 -11
2 -17 5 -6 11 -29 13 -51 2 -33 6 -40 23 -38 45 5 71 4 91 -2 18 -5 22 -2 27
21 6 36 -2 57 -20 50 -12 -5 -11 -2 1 16 11 15 12 26 5 40 -7 14 -6 18 6 18
24 0 19 58 -7 81 -17 13 -19 18 -8 19 13 0 13 1 0 10 -13 9 -13 11 0 20 13 9
13 10 0 10 -13 0 -13 1 0 10 11 7 12 10 2 10 -8 0 -16 -9 -19 -19 -5 -19 -31
-36 -41 -26 -3 2 0 11 7 19 7 8 9 25 5 40 -4 16 0 40 11 63 13 26 16 50 12 86
-9 73 -52 112 -76 70 -6 -10 -11 -14 -11 -10 0 8 26 57 61 116 11 18 19 41 17
50 -3 13 -7 12 -26 -7 -13 -13 -25 -22 -27 -20 -2 2 1 23 7 47 11 42 11 43 27
22 23 -30 33 -19 70 73 8 19 9 31 2 35 -5 4 -9 13 -8 21 4 22 56 122 74 143 9
9 12 17 7 17 -14 -1 -80 -63 -93 -88 -7 -12 -16 -20 -21 -17 -10 6 -33 -30
-35 -55 -1 -8 -2 -24 -3 -35 -1 -11 -11 -35 -23 -54 l-20 -34 -17 24 c-9 13
-17 28 -18 34 0 5 -2 24 -4 40 -1 19 -4 23 -7 13 -4 -17 -23 -26 -23 -12 0 16
25 90 34 103 13 17 15 100 3 125 -6 12 -6 16 1 12 15 -9 52 33 52 58 1 23 29
109 48 143 17 31 15 38 -13 51 -29 13 -134 16 -150 4 -5 -4 -11 -20 -12 -36
-3 -46 -10 -55 -33 -49 -14 4 -19 11 -15 22 4 9 9 28 12 43 5 23 1 28 -23 34
-16 4 -34 14 -39 21 -6 8 -31 17 -55 19 -25 3 -62 12 -82 21 -32 13 -40 14
-54 2 -14 -11 -15 -10 -12 6 2 16 -5 21 -37 28 -22 5 -58 15 -79 23 -46 16
-56 12 -33 -14 15 -17 15 -19 -2 -34 -18 -15 -21 -15 -42 8 -22 24 -69 33 -69
14 0 -17 -16 -11 -43 15 -25 26 -44 22 -27 -5 11 -17 -16 -73 -33 -67 -19 6
-14 32 6 31 13 -2 15 1 7 11 -6 7 -8 19 -4 28 6 17 -11 32 -21 17 -4 -6 -11
-8 -16 -4 -6 3 -19 -2 -29 -11 -17 -15 -19 -15 -25 4 -3 12 -3 26 1 32 3 6 1
22 -7 35 -10 20 -10 29 1 49 12 23 12 28 -9 48 l-23 22 6 -26 c5 -25 -16 -59
-33 -51 -3 1 -7 -21 -9 -50 -2 -29 -3 -57 -4 -63 0 -5 3 -22 7 -37 6 -22 4
-28 -9 -28 -9 0 -16 -3 -16 -7 0 -5 -13 -17 -29 -27 -25 -17 -28 -25 -24 -52
5 -28 0 -39 -31 -71 -20 -21 -39 -48 -42 -60 -7 -25 -30 -29 -55 -10 -12 9
-18 38 -22 112 -5 67 -4 95 3 85 12 -19 13 12 1 83 -4 26 -5 47 -3 47 3 0 16
-10 29 -22 l23 -21 0 21 c0 35 21 37 50 5 l26 -29 -1 41 c-1 23 -5 47 -9 53
-3 6 -2 12 4 14 13 4 -21 70 -39 76 -10 3 -7 -7 9 -33 l23 -38 -36 7 c-29 5
-37 4 -37 -8 0 -8 5 -18 10 -21 6 -3 10 -11 10 -17 0 -6 -8 -4 -18 5 -25 23
-42 21 -42 -4 0 -17 -4 -20 -24 -15 -15 4 -26 1 -29 -7 -2 -6 -11 3 -21 21 -9
18 -21 30 -26 27 -5 -3 -2 -18 6 -33 17 -33 18 -87 2 -147 -10 -37 -9 -59 5
-127 9 -46 17 -96 17 -111 0 -31 37 -54 55 -34 24 29 45 39 58 30 19 -15 49
-24 42 -13 -3 6 -1 10 4 10 6 0 11 11 11 24 0 27 24 51 41 41 7 -5 9 -1 5 12
-5 15 -1 19 21 18 17 0 27 5 25 13 -1 6 2 12 8 12 5 0 10 -4 10 -10 0 -17 39
-11 49 8 5 9 12 35 16 57 16 85 23 64 22 -60 l-2 -129 60 -4 61 -3 23 43 c14
24 35 54 48 68 l24 24 -7 -29 c-3 -17 -7 -32 -6 -35 0 -42 4 -50 21 -50 16 0
51 -38 51 -55 0 -3 -13 -5 -30 -5 -24 0 -30 -4 -31 -22 l0 -23 -16 23 c-8 12
-21 22 -28 22 -18 0 -36 -25 -26 -36 6 -5 3 -25 -6 -49 -9 -22 -18 -63 -20
-92 -3 -29 -11 -57 -19 -64 -11 -9 -14 -8 -14 7 -1 11 -3 52 -6 92 -4 50 -2
77 6 87 9 11 9 15 1 15 -6 0 -11 9 -11 19 0 25 -33 36 -61 21 -11 -7 -30 -9
-42 -6 -27 7 -46 -10 -40 -34 7 -25 -15 -53 -35 -45 -10 4 -13 0 -9 -15 3 -11
1 -22 -4 -26 -5 -3 -1 -14 9 -25 18 -18 21 -18 50 -3 18 8 32 20 32 25 0 5 6
9 13 9 17 0 38 45 31 64 -10 25 4 36 30 24 21 -9 23 -14 15 -37 -5 -14 -23
-35 -39 -46 -28 -18 -36 -41 -31 -82 1 -7 -2 -13 -7 -13 -15 0 -33 26 -24 36
4 4 -1 2 -10 -5 -13 -9 -15 -18 -8 -30 5 -10 6 -27 3 -39 -3 -14 -1 -22 7 -22
7 0 10 7 6 15 -7 18 10 20 18 3 5 -10 7 -10 12 0 8 16 24 5 24 -16 0 -17 -35
-47 -56 -47 -6 0 -18 -6 -26 -13 -18 -15 -38 3 -41 37 -2 26 -8 26 -38 2 -22
-18 -23 -20 -8 -58 15 -37 15 -40 -7 -73 -13 -19 -23 -39 -23 -43 -1 -10 -27
-37 -36 -37 -3 0 -4 4 0 9 3 5 1 12 -5 16 -5 3 -10 19 -10 36 0 20 -5 29 -16
29 -10 0 -14 5 -10 15 3 9 0 36 -6 61 l-12 45 -17 -23 c-20 -26 -34 -19 -24
11 3 12 14 21 24 21 16 0 17 8 13 75 l-5 75 27 0 c14 0 26 -3 27 -7 0 -5 2
-16 4 -25 2 -10 0 -18 -3 -18 -4 0 -7 -11 -7 -25 0 -32 5 -31 41 2 23 21 29
35 29 67 0 25 -6 46 -15 53 -13 10 -11 13 12 23 30 14 34 46 6 54 -10 2 -40 3
-66 1 -26 -2 -52 1 -59 7 -17 14 -53 -8 -53 -32 0 -11 -5 -20 -11 -20 -6 0 -8
8 -5 18 7 22 -34 66 -41 44 -6 -15 -23 -6 -23 14 0 8 9 14 20 14 17 0 20 7 20
39 0 22 -4 43 -10 46 -6 4 -10 -5 -10 -20 0 -14 -4 -24 -9 -20 -6 3 -6 17 -1
34 5 19 4 33 -3 40 -14 14 -12 140 3 187 13 38 7 102 -11 136 -8 15 -18 19
-39 14 -32 -6 -64 19 -41 33 8 5 11 31 10 77 -4 116 0 194 11 194 10 0 14 -13
25 -83 7 -43 28 -46 33 -4 4 36 18 34 37 -6 9 -19 31 -49 50 -67 32 -31 35
-32 64 -19 l30 14 -32 34 c-18 19 -24 29 -14 22 24 -19 32 -8 16 21 -7 12 -12
29 -10 37 1 8 -2 10 -10 6 -7 -5 -10 -3 -7 6 3 8 -2 20 -11 27 -14 11 -14 11
2 6 15 -6 16 -3 7 22 -20 53 -52 114 -59 114 -4 0 -14 11 -21 25 -11 20 -21
25 -69 27 -49 3 -56 6 -59 25 -5 37 40 52 83 29 23 -12 43 -16 61 -12 l27 7
-28 15 c-15 8 -35 14 -45 14 -10 0 -42 23 -71 50 -29 28 -57 50 -61 50 -4 0
-11 15 -16 33 -8 29 -9 27 -16 -35 -6 -54 -11 -68 -27 -73 -11 -4 -26 -2 -33
4 -8 6 -20 9 -28 6 -28 -11 -38 35 -34 155 4 136 17 180 52 180 13 0 27 1 32
2 4 1 9 -11 12 -27 4 -25 11 -30 56 -40 47 -11 51 -10 47 6 -4 15 1 17 39 12
23 -3 50 -12 58 -19 15 -13 29 -13 60 -1 8 3 31 8 50 12 19 3 48 16 64 30 24
19 27 26 17 39 -10 12 -9 14 10 9 l22 -6 -19 33 c-10 18 -27 38 -36 44 -10 6
-18 17 -18 25 0 11 11 13 53 8 51 -6 51 -6 28 11 -13 9 -35 29 -50 45 -15 15
-36 27 -47 26 -10 -1 -35 -1 -55 -1 -39 2 -39 2 -40 95 0 9 -5 17 -11 17 -6 0
-19 9 -29 21 -10 11 -22 18 -27 15 -6 -3 -16 2 -23 11 -10 12 -10 14 -1 9 7
-4 12 -1 12 8 0 19 41 22 72 5 15 -8 19 -8 14 0 -7 11 3 12 77 11 21 0 46 4
56 10 14 7 23 5 36 -10 10 -11 24 -20 32 -20 19 0 16 28 -4 33 -15 4 -14 6 5
12 14 5 22 14 20 24 -3 13 -14 15 -53 13 -28 -2 -57 -8 -65 -12 -9 -6 -21 -3
-32 7 -10 9 -29 16 -43 16 -15 0 -29 6 -32 15 -5 13 -8 13 -18 -2 -7 -9 -19
-14 -27 -11 -15 6 -11 54 13 131 14 47 12 77 -6 70 -9 -3 -15 0 -15 9 0 8 5
15 10 15 6 0 10 5 10 10 0 6 -7 10 -15 10 -8 0 -15 7 -15 15 0 37 52 -5 76
-61 17 -41 17 -68 0 -116 -8 -21 -10 -38 -5 -38 4 0 14 19 20 43 7 23 17 48
22 54 17 23 -13 130 -33 118 -5 -3 -15 7 -23 21 -12 22 -30 32 -93 51 -43 13
-86 23 -97 23 -13 0 -18 6 -15 22 2 18 16 27 61 42 41 14 57 25 57 38 0 20
-44 53 -59 44 -6 -4 -15 2 -20 13 -12 21 9 48 28 36 6 -3 37 -13 68 -21 32 -8
66 -24 76 -34 22 -25 31 -26 18 -2 -13 24 -78 74 -84 64 -2 -4 -2 -1 -1 5 2 7
-6 19 -17 26 -11 8 -17 21 -14 29 9 24 -86 129 -145 161 l-52 27 6 -25 c4 -14
2 -25 -3 -25 -13 0 -23 33 -16 52 3 8 -1 21 -10 28 -8 7 -15 20 -15 29 0 31
-15 42 -28 21z m-1348 -2667 c4 -9 4 -121 1 -249 -6 -215 -5 -233 11 -242 15
-9 16 -13 5 -26 -20 -24 -26 -20 -46 28 -11 26 -23 42 -31 39 -6 -2 -28 9 -47
26 -46 41 -65 41 -60 -1 4 -31 3 -32 -11 -14 -19 24 -20 31 -3 43 24 19 45 21
72 7 65 -34 83 -5 90 145 3 62 8 117 11 123 3 5 0 15 -6 23 -6 8 -10 31 -9 52
2 21 0 44 -5 51 -4 7 -2 12 7 12 8 0 18 -8 21 -17z m260 -27 c15 -31 22 -85
34 -270 l15 -231 28 -25 c15 -14 37 -53 50 -88 20 -58 21 -67 9 -120 -8 -31
-12 -86 -11 -122 2 -52 -2 -74 -21 -109 -35 -66 -52 -66 -43 0 4 30 7 56 7 59
1 21 -3 30 -11 25 -5 -3 -9 8 -9 25 1 17 -2 33 -5 37 -4 3 -7 -19 -7 -50 0
-62 -14 -84 -24 -36 -11 59 -7 99 10 99 12 0 15 6 9 23 -3 12 -8 38 -9 58 -4
42 -12 59 -29 59 -17 0 -67 48 -67 64 0 8 -7 19 -15 26 -12 10 -15 10 -15 -4
0 -9 -4 -16 -10 -16 -5 0 -10 4 -10 9 0 5 -7 17 -16 26 -9 8 -18 33 -21 54 -5
33 -2 40 16 46 25 8 26 20 6 59 -17 33 -16 58 7 101 8 17 13 37 11 45 -2 8 1
6 8 -5 9 -13 12 -56 11 -127 l-2 -108 29 -14 c35 -19 41 -14 42 38 1 41 3 40
24 -21 4 -13 14 -23 22 -23 12 0 13 8 8 41 -11 64 -12 112 -4 130 4 8 3 42 -2
75 -5 32 -9 76 -9 97 1 20 -4 37 -10 37 -5 0 -10 8 -10 18 0 10 -6 27 -14 37
-8 12 -12 32 -9 51 3 18 0 34 -6 38 -6 4 -11 14 -11 22 0 29 35 9 54 -30z
m-281 -638 c3 -13 2 -39 -2 -58 -5 -23 -3 -49 6 -75 17 -47 19 -101 8 -172
-12 -77 -27 -68 -38 22 l-4 30 -2 -32 c0 -17 -5 -35 -11 -38 -6 -4 -10 25 -10
79 0 46 4 86 10 88 10 3 18 59 19 136 1 45 15 57 24 20z m2183 -695 c4 -25 3
-67 -2 -92 -9 -45 -10 -46 -42 -43 -22 3 -41 -3 -54 -15 -21 -18 -21 -18 -16
3 3 11 -1 29 -8 39 -8 10 -14 34 -14 53 0 28 3 32 19 27 26 -8 47 37 29 62 -6
7 -4 14 3 19 8 4 9 3 5 -4 -4 -7 -2 -12 3 -12 6 0 11 5 11 10 0 6 6 17 13 25
18 21 44 -14 53 -72z m-99 -523 c3 -11 10 -17 15 -14 5 3 8 -2 6 -12 -2 -11 2
-18 10 -16 6 1 12 -7 12 -18 0 -11 6 -20 14 -20 8 0 13 -8 12 -17 0 -11 6 -17
17 -17 9 1 17 -5 17 -13 0 -8 -5 -11 -10 -8 -6 3 -18 -1 -27 -10 -11 -12 -25
-15 -49 -11 -18 4 -35 2 -39 -4 -3 -5 -17 -10 -31 -10 -14 0 -22 -4 -19 -10 3
-5 33 -10 66 -10 l59 0 1 -62 c3 -137 -3 -246 -18 -311 -8 -38 -13 -77 -10
-88 3 -13 0 -22 -9 -26 -12 -5 -15 -22 -12 -84 3 -77 18 -113 18 -44 0 33 2
35 33 35 17 0 37 -4 44 -8 12 -7 6 -62 -7 -62 -4 0 -4 -19 0 -42 6 -29 5 -45
-3 -50 -9 -6 -9 -8 0 -8 17 0 36 -38 26 -53 -4 -6 -9 -29 -10 -49 -1 -20 -6
-45 -11 -55 -6 -10 -9 -115 -7 -243 2 -228 -2 -270 -30 -270 -18 0 -20 16 -2
24 6 3 0 4 -15 1 -28 -5 -29 -4 -42 58 -4 15 -22 60 -41 99 -24 50 -40 73 -54
75 -14 2 -21 -3 -22 -15 0 -9 -2 -28 -3 -42 -2 -14 1 -28 7 -31 5 -4 7 -15 3
-25 -5 -12 -10 -14 -18 -6 -6 6 -16 8 -23 6 -15 -6 -32 125 -18 135 4 3 9 29
10 56 1 28 4 91 7 140 2 50 5 110 5 134 1 24 4 42 7 38 3 -3 7 -85 8 -181 1
-176 7 -204 36 -186 12 8 12 10 1 10 -11 0 -12 25 -6 138 9 180 9 241 1 249
-3 3 -6 14 -6 23 0 9 -6 25 -14 36 -14 18 -15 18 -25 -6 -10 -25 -10 -25 -10
7 -1 17 3 33 8 35 5 2 3 17 -4 36 -13 30 -17 32 -67 34 -29 0 -63 0 -75 -1
-13 -1 -23 2 -23 7 0 10 149 36 198 35 21 -1 32 4 32 13 0 14 -10 17 -45 15
-17 -1 -16 1 7 19 25 19 27 26 23 71 -3 28 -9 58 -15 69 -7 13 -6 19 3 23 16
6 22 102 8 112 -7 4 -10 -10 -9 -39 4 -78 -23 -75 -42 4 -7 29 -18 50 -25 50
-24 0 -29 -23 -9 -39 27 -22 29 -59 6 -85 -13 -13 -23 -43 -27 -78 -4 -32 -11
-58 -16 -58 -7 0 -9 20 -10 113 0 15 -4 39 -9 52 -6 17 -6 25 1 25 6 0 7 5 4
10 -4 6 -9 8 -13 6 -4 -2 -14 3 -22 12 -13 14 -12 15 2 10 19 -8 24 3 23 57 0
39 -1 40 -42 46 -34 4 -40 3 -31 -8 10 -12 8 -14 -8 -12 -3 0 -12 -8 -19 -18
-13 -17 -14 -17 -12 4 0 12 6 21 11 20 6 -1 10 5 11 13 0 8 11 17 25 21 14 4
18 8 10 8 -13 1 -13 3 1 14 9 7 14 17 12 24 -2 6 1 14 6 18 6 3 11 1 11 -4 0
-6 5 -11 11 -11 7 0 9 10 7 25 -7 34 9 44 70 46 69 3 112 29 112 68 0 15 7 47
15 70 8 23 10 39 5 36 -6 -3 -10 -2 -10 4 0 9 20 17 48 20 8 0 16 -8 19 -19z
m-726 -911 c-5 -19 -12 -63 -15 -99 -14 -142 -25 -287 -25 -327 -1 -36 -4 -43
-21 -43 -11 0 -20 -2 -20 -4 0 -2 -3 -11 -6 -20 -4 -11 -1 -16 10 -16 9 0 16
8 16 17 0 10 3 13 8 7 8 -7 2 -100 -13 -216 -4 -40 -45 -78 -45 -43 0 8 7 15
15 15 8 0 15 7 15 15 0 8 -9 15 -20 15 -16 0 -20 7 -20 36 0 21 4 33 10 29 6
-3 10 -13 10 -21 0 -8 3 -13 8 -11 11 7 0 186 -12 206 -4 7 -5 19 -2 28 4 9 9
53 12 97 3 45 12 113 20 151 8 39 14 75 14 80 0 6 5 2 11 -8 5 -9 7 -23 3 -30
-5 -9 -4 -9 6 0 11 10 11 18 2 38 -15 32 -15 38 -2 30 6 -3 7 1 4 9 -6 14 34
111 42 103 2 -2 -1 -19 -5 -38z m863 -799 c4 -90 18 -175 41 -255 4 -14 -6
-32 -32 -61 -39 -41 -77 -53 -112 -34 -10 5 -36 10 -57 12 -46 3 -65 22 -57
62 7 32 -13 52 -34 34 -20 -16 -4 21 18 43 19 19 57 15 75 -9 15 -20 48 -11
52 14 4 31 -25 57 -55 49 -18 -4 -24 -2 -20 7 2 7 11 12 21 10 16 -3 20 12 17
51 -3 20 3 21 30 7 16 -9 19 -7 19 8 0 10 -9 27 -20 37 -18 16 -18 19 -3 41
14 22 14 26 -2 51 l-18 26 29 -20 c16 -11 36 -18 44 -15 13 4 13 3 2 -11 -15
-18 -8 -37 14 -37 10 0 14 12 14 39 0 22 3 47 6 56 13 33 22 -3 28 -105z m70
-505 c3 -44 9 -118 12 -165 5 -71 3 -88 -9 -99 -9 -7 -14 -18 -11 -25 3 -7 -6
-24 -20 -39 -27 -29 -67 -34 -138 -18 -28 7 -42 5 -59 -7 -17 -12 -23 -12 -29
-2 -6 9 -27 13 -64 11 -45 -2 -56 1 -56 13 0 9 -5 16 -12 16 -7 0 -6 6 4 18 8
9 19 31 23 47 8 30 8 30 16 -14 5 -24 10 -46 12 -48 10 -9 67 -21 67 -13 0 4
-10 11 -22 15 -15 4 -18 8 -10 12 7 3 21 -2 31 -11 16 -15 42 -24 28 -10 -3 3
6 17 21 30 23 20 25 25 12 34 -13 8 -13 10 1 10 11 0 15 9 14 35 -1 39 -15 61
-15 24 0 -14 -9 -35 -21 -47 -21 -23 -39 -21 -39 4 0 8 -5 14 -11 14 -6 0 -8
-7 -5 -16 9 -23 -3 -37 -20 -23 -11 9 -12 15 -2 26 9 11 9 16 -1 22 -10 6 -9
20 2 67 14 57 16 149 3 161 -3 4 -6 1 -6 -5 0 -7 -7 -12 -15 -12 -8 0 -15 9
-15 19 0 16 5 18 33 11 18 -4 53 -4 77 0 l45 6 -37 17 c-27 11 -36 20 -32 31
5 12 22 16 74 16 78 0 121 18 140 57 13 28 14 28 21 -27 4 -30 10 -91 13 -135z
m-840 -1971 c-3 -40 0 -80 9 -115 9 -30 18 -85 21 -124 4 -38 13 -101 21 -140
8 -38 17 -96 20 -128 4 -39 14 -66 30 -85 13 -15 32 -63 44 -107 11 -44 30
-116 41 -160 12 -44 26 -100 30 -125 5 -25 22 -80 39 -122 31 -80 33 -92 76
-443 29 -234 34 -421 14 -570 -11 -81 -16 -97 -36 -110 -13 -9 -23 -22 -23
-30 0 -26 -20 -66 -30 -60 -6 4 -6 12 0 23 5 9 11 28 14 42 3 14 12 34 21 45
9 11 13 14 9 6 -5 -10 -3 -12 5 -7 8 5 10 19 6 37 -4 18 -2 36 5 44 22 26 27
301 9 468 -18 160 -34 265 -48 307 -5 14 -13 43 -19 65 -27 105 -39 136 -83
220 -67 128 -152 332 -160 385 -4 25 -17 101 -28 170 -13 80 -21 171 -21 252
0 114 2 127 16 121 12 -4 15 -2 12 8 -3 8 -11 13 -18 11 -13 -3 -12 34 7 288
l8 105 7 -105 c4 -58 5 -133 2 -166z m3507 -2134 c36 -20 11 -100 -30 -100
-10 0 -24 -6 -30 -14 -12 -15 -88 -32 -97 -23 -7 7 15 50 30 59 6 4 11 13 12
20 0 7 2 21 2 31 3 31 74 48 113 27z m-301 -342 c38 -40 70 -76 70 -80 0 -5
-42 -8 -94 -8 -73 0 -96 3 -107 16 -12 14 -14 14 -25 -1 -9 -13 -27 -15 -85
-13 l-74 3 -3 47 c-3 46 -4 46 -43 52 -21 3 -57 9 -79 12 -24 3 -38 10 -34 16
5 7 45 9 115 6 86 -4 109 -3 113 8 4 10 27 14 91 14 l85 0 70 -72z m600 -18
c0 -11 -7 -37 -15 -57 -8 -19 -15 -55 -15 -79 0 -23 -5 -46 -11 -50 -6 -3 -9
-14 -6 -24 2 -9 -1 -27 -8 -40 -7 -13 -11 -35 -9 -49 4 -22 -2 -29 -38 -45
-29 -13 -37 -21 -26 -23 9 -2 27 3 41 11 57 38 226 63 242 36 4 -6 9 -52 11
-103 l5 -92 -31 -23 c-22 -17 -29 -29 -25 -42 5 -15 0 -21 -22 -25 -15 -3 -56
-19 -90 -35 -59 -28 -63 -32 -63 -64 0 -23 7 -38 23 -50 l22 -16 -30 2 c-29 3
-30 5 -33 55 -2 28 6 88 17 132 10 44 17 91 14 103 -8 31 -23 49 -35 42 -6 -4
-14 -1 -18 6 -4 7 -13 9 -19 6 -16 -10 -13 -46 5 -53 12 -5 14 -18 9 -82 -8
-104 -15 -150 -25 -156 -5 -3 -11 -23 -15 -46 l-7 -41 -57 7 c-78 9 -92 -3
-98 -88 -6 -71 -7 -72 -47 -57 -24 9 -26 7 -26 -16 0 -34 -24 -26 -28 9 -2 15
-7 27 -12 27 -5 0 -6 26 -3 58 6 61 21 82 61 82 15 0 37 15 59 40 23 25 45 40
60 40 20 0 23 5 23 35 0 32 3 35 28 35 49 0 62 25 40 77 -7 15 -12 48 -12 73
l-1 45 -57 3 c-45 2 -60 7 -68 22 -15 28 -50 27 -42 -2 4 -15 2 -19 -7 -14
-18 12 -10 244 9 256 8 5 15 28 16 57 l2 48 48 13 c102 26 195 56 200 64 3 4
18 8 35 8 22 0 29 -4 29 -20z m-1142 -356 c3 -47 5 -52 29 -57 14 -3 52 -2 85
0 40 4 58 2 58 -6 0 -15 -607 -15 -616 0 -4 7 34 10 103 9 59 -1 150 -1 201
-1 l92 1 0 56 c0 52 1 55 23 52 19 -3 22 -10 25 -54z m-1705 -456 c-7 -13 -14
-51 -16 -85 l-5 -63 41 -1 c23 -1 50 0 61 1 13 1 16 -2 10 -12 -5 -7 -7 -33
-7 -58 1 -26 -4 -51 -12 -60 -11 -13 -10 -19 11 -43 24 -28 24 -28 58 -12 33
16 34 18 41 93 6 69 8 74 21 57 8 -11 24 -20 37 -20 19 0 22 -6 23 -45 1 -25
3 -49 4 -55 1 -5 3 -17 4 -25 0 -8 8 -15 16 -15 10 0 14 8 12 23 -2 12 2 22 7
22 6 0 11 -13 11 -30 0 -23 -7 -33 -30 -45 -48 -25 -40 -95 11 -95 16 0 29 -4
29 -8 0 -8 -99 -57 -110 -55 -16 4 -7 22 12 25 13 2 24 11 26 21 3 16 0 18
-20 12 -12 -4 -26 -13 -30 -18 -4 -8 -13 -5 -26 6 -19 17 -20 17 -38 0 -9 -10
-29 -19 -43 -20 -47 -5 -66 -9 -78 -16 -6 -4 -18 -4 -27 -1 -16 6 -20 -3 -17
-36 1 -11 -2 -10 -10 3 -8 14 -8 48 -1 125 8 73 8 110 1 119 -17 19 0 35 34
31 l32 -3 3 62 3 62 -37 -10 c-50 -14 -57 -4 -56 80 1 66 14 106 37 123 18 13
29 -10 18 -34z m505 -575 c2 -15 9 -19 26 -16 21 4 23 1 21 -24 -1 -15 -5 -35
-8 -43 -3 -8 -7 -28 -9 -44 -2 -25 -9 -31 -37 -39 -39 -10 -50 -2 -68 46 -11
30 -12 30 -12 7 -1 -14 -5 -31 -10 -39 -8 -12 -12 -11 -27 3 -14 15 -15 22 -6
37 7 10 12 28 12 39 0 11 6 21 13 21 6 1 17 2 22 4 6 1 18 3 27 3 11 1 19 14
24 37 7 38 27 43 32 8z m-359 -37 c10 -8 -1 -14 -50 -26 -53 -12 -65 -19 -67
-37 -3 -21 1 -23 42 -23 40 0 46 -3 46 -21 0 -24 17 -59 30 -59 5 0 11 8 13
18 3 9 5 -10 6 -44 l1 -61 -42 1 c-34 1 -42 -2 -39 -14 2 -8 5 -50 6 -93 2
-72 0 -78 -17 -74 -11 3 -18 0 -18 -10 0 -10 6 -13 16 -9 9 4 22 2 29 -4 7 -6
29 -11 49 -12 40 -1 51 -26 16 -35 -11 -3 -20 -11 -20 -18 0 -7 -6 -15 -13
-18 -9 -3 -14 -24 -15 -59 -2 -60 4 -74 33 -80 18 -3 20 3 22 57 2 81 4 86 13
46 5 -19 6 -58 3 -88 -5 -47 -8 -53 -29 -53 -12 0 -24 -6 -27 -12 -4 -10 -7
-10 -18 0 -20 19 -42 15 -36 -7 3 -12 -4 -28 -18 -41 l-22 -21 -5 25 c-3 14
-2 23 3 21 4 -3 5 4 2 15 -5 19 -23 28 -23 12 0 -5 -10 -8 -22 -8 -20 1 -23
-4 -25 -44 -1 -25 -4 -73 -7 -108 -2 -34 -1 -60 4 -57 8 5 89 8 158 6 25 -1
32 -5 32 -21 0 -22 -3 -22 -128 -21 l-63 0 3 -107 3 -107 63 -3 c37 -2 60 -7
57 -13 -4 -5 -26 -7 -53 -3 -39 5 -50 3 -65 -14 -16 -17 -17 -33 -12 -118 3
-55 5 -106 5 -114 -2 -90 1 -214 6 -221 4 -8 104 -3 113 6 2 3 4 56 4 120 1
63 5 114 10 112 4 -1 10 -51 12 -111 3 -63 10 -114 16 -123 13 -14 57 -14 92
2 24 10 54 -25 31 -38 -8 -4 -14 -13 -14 -20 0 -18 -44 -106 -54 -107 -4 0 -6
13 -4 30 3 16 0 30 -5 30 -6 0 -3 8 6 18 11 12 13 22 6 32 -8 13 -10 13 -19 0
-5 -8 -10 -25 -10 -38 0 -19 -4 -22 -20 -17 -18 6 -19 4 -10 -21 6 -15 10 -60
8 -100 -1 -41 1 -77 5 -80 4 -4 62 -9 129 -11 66 -1 123 -5 126 -8 3 -3 -15
-5 -41 -5 -27 0 -47 -5 -50 -12 -3 -10 -7 -10 -20 0 -13 11 -17 10 -27 -8 -6
-11 -8 -24 -5 -29 10 -18 -7 -43 -27 -38 -11 3 -22 0 -25 -9 -3 -8 -13 -14
-23 -14 -11 0 -22 -4 -25 -10 -3 -6 4 -10 18 -10 25 0 48 -38 61 -102 5 -23 3
-25 -16 -20 -14 3 -19 2 -14 -6 4 -7 1 -12 -9 -12 -9 0 -19 8 -22 18 -7 28
-73 25 -74 -3 0 -19 -1 -18 -11 3 -12 25 -28 29 -28 8 0 -23 -29 -27 -40 -6
-6 11 -17 20 -25 20 -26 0 -33 24 -39 155 -4 76 0 108 14 100 15 -9 108 6 113
19 3 6 1 33 -3 60 -4 28 -3 65 2 83 10 36 -3 73 -26 73 -8 0 -16 7 -20 15 -8
23 -57 19 -63 -5 -6 -24 -31 -26 -40 -4 -5 15 -7 15 -15 0 -17 -31 -24 -7 -22
83 3 116 -1 129 -32 123 -25 -5 -62 17 -45 27 5 3 7 19 4 34 -4 21 -8 25 -14
15 -6 -8 -9 4 -9 35 0 26 2 47 4 47 2 0 12 3 21 6 9 4 15 3 14 -2 -4 -16 13
-44 22 -38 5 3 9 -2 9 -10 0 -8 5 -18 11 -21 6 -5 10 9 9 37 -1 23 3 70 7 103
5 34 10 274 11 534 3 437 2 475 -14 492 -22 24 -10 38 36 44 18 3 35 6 37 9 9
8 3 200 -6 209 -5 5 -7 15 -5 22 6 16 172 8 193 -9z m-829 -241 c-1 -33 -2
-100 -2 -150 0 -49 0 -164 0 -255 0 -91 -4 -169 -9 -174 -10 -12 -10 -17 -15
89 -5 106 -11 130 -29 115 -11 -9 -14 0 -17 52 -4 72 -1 88 17 88 21 0 25 14
15 51 -5 18 -6 35 -2 38 12 10 13 40 3 59 -7 13 -7 22 1 30 13 13 2 32 -18 32
-13 0 -16 8 -12 28 0 4 9 6 18 4 20 -3 29 30 31 117 l2 56 9 -60 c6 -33 9 -87
8 -120z m3890 151 c14 -6 25 -18 25 -26 0 -15 -18 -16 -85 -8 -25 3 -27 1 -29
-52 -1 -25 -6 -31 -31 -36 -16 -4 -30 -10 -30 -15 0 -28 -94 4 -108 36 -15 33
-79 60 -108 45 -23 -13 -85 -1 -91 17 -5 13 68 23 114 16 19 -3 44 0 58 7 13
7 33 10 44 7 11 -3 47 3 78 13 60 19 117 18 163 -4z m-518 -235 c-1 -131 -6
-219 -12 -226 -8 -9 -6 -14 6 -19 9 -4 14 -13 10 -21 -4 -12 -8 -165 -5 -235
3 -62 -3 -291 -8 -318 -5 -31 -6 -32 -19 -14 -15 22 -84 29 -96 9 -6 -9 -8 -9
-8 1 0 6 -7 12 -15 12 -11 0 -15 -12 -16 -47 0 -27 -1 -70 -2 -96 -3 -52 7
-82 17 -51 3 11 7 38 8 61 2 24 7 43 11 43 5 0 6 4 3 9 -7 11 20 9 31 -2 7 -7
12 -32 16 -74 1 -16 8 -23 24 -23 12 0 25 5 29 11 4 8 9 8 18 -1 8 -8 8 -13
-2 -19 -20 -12 11 -33 45 -31 15 1 143 2 285 1 l256 -1 -1 -104 -2 -104 -55
-41 c-51 -39 -80 -51 -80 -33 0 16 16 30 40 33 24 4 24 6 26 101 l1 98 -61 0
c-59 0 -61 -1 -63 -27 -7 -84 -4 -90 42 -99 19 -3 35 -8 35 -9 0 -2 -3 -11 -6
-19 -5 -13 -9 -14 -20 -5 -11 9 -15 7 -21 -6 -6 -16 -7 -16 -15 4 -5 13 -15
21 -25 19 -16 -3 -18 6 -19 65 -1 37 -3 69 -5 71 -4 4 -257 14 -454 19 l-80 2
-2 -30 c-3 -45 -3 -277 1 -300 1 -11 5 -27 8 -35 9 -23 6 -54 -6 -62 -8 -5 -8
-13 1 -27 8 -13 9 -22 3 -26 -6 -3 -10 -38 -10 -77 0 -39 -3 -68 -6 -65 -4 4
-7 74 -8 155 -1 108 -5 153 -14 165 -11 12 -13 86 -13 349 2 785 8 977 28 921
7 -20 23 -15 23 6 0 10 7 21 15 25 8 3 15 1 15 -4 0 -6 4 -10 9 -10 5 0 13 26
17 57 6 36 14 58 24 61 12 4 13 2 3 -9 -16 -16 -17 -33 -3 -24 7 4 9 -2 4 -19
-9 -39 3 -47 39 -26 l32 19 -3 86 -4 86 -31 -7 c-45 -9 -48 -12 -35 -34 10
-15 10 -22 1 -31 -9 -9 -15 -6 -24 14 -11 25 -12 25 -32 6 -17 -15 -22 -33
-23 -81 -2 -46 -7 -65 -23 -82 l-21 -20 0 63 c0 56 2 62 18 57 14 -5 14 -3 -3
11 -12 11 -20 31 -20 48 0 24 5 31 25 33 14 2 29 10 33 18 5 8 24 14 47 14 21
0 43 6 47 13 11 17 56 46 67 43 5 -1 8 -95 8 -215z m-2092 89 c3 0 -2 -5 -10
-10 -8 -5 -52 -7 -97 -5 -70 3 -84 1 -93 -13 -5 -10 -10 -12 -10 -4 0 6 -7 12
-16 12 -14 0 -15 -9 -9 -62 5 -35 8 -84 7 -110 -1 -41 2 -48 18 -48 10 0 21
-4 24 -8 5 -9 -29 -42 -43 -42 -14 0 -21 -29 -20 -91 1 -70 6 -78 48 -76 48 3
52 -21 4 -25 l-38 -3 -3 -104 c-1 -59 2 -109 7 -114 6 -6 44 -10 85 -10 42 0
76 -3 76 -8 0 -5 -24 -9 -54 -9 -66 0 -86 -16 -80 -62 2 -18 -1 -50 -7 -72 -6
-22 -12 -56 -13 -75 -1 -19 -6 -36 -12 -38 -7 -2 -9 18 -6 57 3 34 -1 87 -7
118 -6 31 -13 113 -15 182 -4 109 -6 126 -24 140 -16 13 -17 18 -6 26 18 12
24 186 6 192 -7 2 -12 8 -12 13 0 6 5 7 10 4 8 -5 17 149 11 188 0 4 6 7 14 7
10 0 15 10 15 31 l0 31 123 -6 c67 -3 124 -6 127 -6z m850 -10 c13 -8 13 -11
-1 -22 -16 -12 -32 -70 -31 -113 1 -89 10 -115 43 -115 11 0 19 -2 19 -4 0 -2
3 -13 6 -23 6 -16 5 -16 -9 2 -13 16 -19 18 -34 9 -10 -6 -19 -21 -21 -33 -2
-13 -8 -19 -15 -14 -7 3 -5 -2 4 -13 11 -13 15 -33 13 -60 -4 -47 15 -81 40
-71 12 5 16 20 17 59 l2 53 8 -64 c8 -64 5 -86 -11 -76 -22 14 -31 -28 -29
-137 l3 -113 -38 -3 c-21 -2 -45 -1 -53 2 -26 10 5 36 42 36 l32 0 0 98 c1
103 -6 123 -37 115 -11 -3 -27 0 -35 7 -14 11 -13 14 1 25 23 16 29 137 9 175
-10 19 -11 30 -3 38 11 11 12 187 1 230 -5 19 -1 22 28 22 19 0 41 -5 49 -10z
m951 -246 c0 -1179 -1 -1258 -14 -1239 -8 10 -19 15 -25 11 -18 -11 -20 5 -12
99 3 50 2 105 -3 124 -6 22 -5 43 3 61 7 16 8 35 4 42 -7 12 -15 1125 -8 1138
1 3 14 5 29 5 l25 -2 1 -239z m-1394 -61 c1 -147 -1 -141 36 -145 32 -3 32 -4
37 -63 3 -33 4 -97 2 -143 -3 -77 -5 -82 -23 -77 -11 4 -43 8 -72 10 -76 4
-68 18 10 19 l68 1 3 95 c2 71 -1 100 -12 115 -21 28 -27 16 -29 -57 -2 -57
-9 -77 -29 -78 -4 0 -7 24 -7 53 0 28 -4 64 -8 79 -4 15 -6 65 -3 110 3 46 3
98 -1 116 -6 26 -4 32 10 32 14 0 17 -11 18 -67z m-3217 -833 l10 -38 153 5
c83 3 163 5 177 4 14 0 130 -2 257 -3 181 -2 233 0 233 10 0 6 5 12 11 12 5 0
7 -4 4 -10 -4 -6 7 -10 25 -10 17 0 29 4 25 9 -3 5 7 4 22 -4 38 -18 334 -16
340 2 4 10 8 10 18 -1 14 -14 188 -23 525 -29 l125 -2 -3 -30 c-2 -16 -4 -61
-5 -99 -2 -58 -5 -71 -23 -83 -19 -12 -24 -12 -38 3 -10 10 -14 23 -11 33 14
33 17 88 6 95 -16 10 -13 36 4 36 21 0 19 20 -2 21 -10 1 -76 3 -146 4 l-129
3 6 -23 c7 -26 -6 -34 -42 -27 -19 4 -22 9 -18 28 l6 24 -277 -1 c-172 -1
-283 -5 -290 -11 -7 -6 -13 -7 -13 -3 0 4 -7 2 -15 -5 -8 -7 -22 -9 -32 -6 -9
4 -19 2 -23 -4 -7 -12 -43 -13 -112 -4 -53 7 -65 24 -17 24 17 0 28 4 24 10
-4 6 -124 10 -326 10 -295 0 -320 -1 -326 -17 -9 -23 -29 -43 -42 -43 -17 0
-13 30 4 36 28 11 4 24 -46 24 -35 0 -51 4 -55 15 -4 8 -15 15 -25 15 -19 0
-20 15 -4 67 8 24 35 1 45 -37z m-12021 -567 c19 -16 20 -22 10 -54 -8 -27
-20 -39 -43 -47 -55 -20 -242 -30 -366 -19 -63 5 -180 11 -260 12 -122 3 -146
1 -156 -13 -10 -13 -16 -14 -42 -3 -23 10 -35 10 -51 1 -22 -11 -113 -5 -141
11 -26 13 37 30 125 33 44 2 93 8 108 15 16 6 41 11 56 11 15 0 32 5 37 10 19
19 182 32 242 19 41 -8 66 -8 105 2 58 14 236 36 308 38 31 1 54 -5 68 -16z
m16847 6 c4 -7 8 -33 8 -58 1 -25 3 -74 4 -108 l2 -62 32 10 c18 5 39 9 45 9
17 0 17 -40 1 -41 -41 -2 -75 -12 -89 -25 -44 -39 -67 17 -54 133 4 32 8 76
10 98 2 22 3 43 4 48 2 11 29 8 37 -4z m-14993 -52 c3 -7 3 -25 0 -40 -3 -15
0 -34 7 -42 7 -8 9 -15 4 -16 -5 0 -34 -2 -64 -4 -30 -2 -83 -6 -117 -9 -42
-3 -86 2 -140 15 -44 12 -110 20 -153 20 -51 0 -83 5 -99 16 l-23 15 43 20
c38 17 59 19 149 15 58 -2 157 1 220 8 155 17 167 17 173 2z m15516 -322 c34
-3 71 -1 80 5 12 6 30 6 52 -1 19 -6 94 -11 167 -10 83 0 131 -3 127 -9 -3 -6
-14 -10 -23 -10 -10 0 -36 -9 -57 -20 -26 -14 -50 -19 -70 -15 -82 14 -278 35
-337 35 -62 0 -68 2 -68 21 0 19 4 20 33 15 18 -3 61 -8 96 -11z"/>
<path d="M18838 1885 c-4 -16 -1 -25 8 -25 21 0 27 -20 10 -38 -17 -20 -33
-207 -16 -197 6 3 10 13 10 21 0 17 16 19 23 2 4 -8 8 -4 12 10 9 28 45 30 52
2 6 -22 18 -26 28 -10 4 6 10 8 15 5 19 -12 33 42 31 128 0 49 -3 93 -7 98 -8
14 -44 11 -44 -5 0 -7 -7 -19 -15 -26 -9 -7 -12 -17 -7 -24 4 -6 6 -27 3 -46
l-6 -34 -13 28 c-7 15 -10 32 -6 37 9 14 -24 77 -46 89 -26 14 -27 13 -32 -15z"/>
<path d="M18989 1629 c-11 -66 -15 -71 -28 -38 -13 33 -21 9 -24 -67 -1 -35
-6 -57 -12 -54 -5 3 -9 11 -9 18 1 6 -2 12 -7 12 -5 0 -9 -5 -9 -12 0 -6 -2
-9 -5 -7 -2 3 -1 19 4 35 9 33 -11 100 -28 90 -10 -6 -15 -201 -6 -217 5 -6
15 -5 31 6 14 9 30 15 37 14 25 -4 67 21 72 43 7 26 -1 168 -10 176 -3 3 -5 3
-6 1z"/>
<path d="M15943 14028 c-38 -77 -45 -99 -38 -125 11 -40 15 -122 17 -345 1
-130 6 -198 13 -198 28 1 41 27 42 82 1 56 16 88 42 88 6 0 11 4 11 9 0 6 -12
9 -27 8 -19 -1 -28 3 -31 17 -2 11 0 16 7 12 6 -4 11 -3 11 3 0 5 -5 11 -12
13 -14 5 -1 28 16 28 7 0 12 -10 12 -21 -1 -12 5 -24 13 -27 11 -4 13 2 7 29
-19 88 -19 102 -5 97 9 -3 14 -19 14 -44 0 -27 5 -40 15 -42 12 -2 15 -16 15
-62 0 -32 3 -56 6 -54 4 2 9 -2 11 -8 8 -22 60 4 85 41 21 31 23 45 23 163 0
137 -10 198 -39 237 -17 22 -19 23 -49 7 -17 -9 -38 -29 -46 -44 -17 -31 -17
-32 -21 31 -2 40 0 47 16 47 11 0 19 5 19 10 0 6 -18 10 -39 10 -33 0 -42 5
-58 30 l-19 31 -11 -23z"/>
<path d="M16015 13236 c7 -74 0 -98 -28 -94 -14 2 -21 10 -20 21 0 10 -2 16
-5 13 -3 -3 -11 -1 -19 5 -9 9 -13 8 -13 0 0 -22 31 -59 56 -65 13 -4 24 -14
25 -24 3 -109 16 -149 45 -138 6 2 20 -2 31 -9 25 -20 32 -18 26 4 -3 10 0 22
6 25 6 4 11 19 11 34 l-1 27 -18 -22 c-19 -23 -38 -32 -26 -13 3 6 -1 13 -9
16 -21 8 -26 28 -36 150 -4 58 -13 111 -19 117 -9 9 -10 -4 -6 -47z"/>
<path d="M16874 8018 c4 -24 14 -63 22 -88 26 -75 85 -308 97 -384 13 -76 16
-79 82 -63 11 3 23 6 27 6 4 1 4 21 1 46 -3 31 -1 45 7 45 6 0 9 4 5 9 -3 5
-1 12 5 16 14 9 12 55 -5 85 -7 14 -11 37 -8 53 3 16 1 27 -5 27 -6 0 -9 7 -5
16 3 9 -3 23 -15 34 -16 15 -19 25 -12 53 5 23 3 40 -6 52 -13 18 -19 10 -15
-17 1 -9 -52 13 -61 26 -3 5 -4 15 -1 23 7 17 -16 73 -29 73 -6 0 -8 7 -4 15
3 8 1 15 -4 15 -6 0 -10 -7 -10 -15 0 -8 -6 -15 -14 -15 -7 0 -19 7 -26 15
-23 28 -33 17 -26 -27z"/>
<path d="M16668 7164 c-7 -6 -48 -16 -75 -18 -28 -1 -30 -12 -3 -19 11 -3 20
-13 20 -22 0 -12 -6 -15 -19 -10 -27 8 -41 -21 -34 -74 4 -27 1 -51 -8 -68
-12 -22 -11 -27 6 -39 19 -14 67 -16 119 -5 26 5 28 8 15 21 -20 22 -23 50 -4
50 8 0 15 5 15 11 0 6 -9 8 -20 4 -19 -6 -20 -4 -14 22 4 15 10 30 14 33 9 7
10 109 1 115 -5 2 -10 2 -13 -1z"/>
<path d="M16681 6086 c-9 -10 -11 -46 -9 -112 3 -72 1 -100 -9 -110 -10 -10
-11 -19 -3 -33 5 -11 10 -37 10 -58 0 -25 3 -33 9 -24 6 9 11 10 15 2 8 -12
54 -15 80 -5 13 5 12 9 -5 27 -20 21 -20 44 -1 40 13 -3 11 26 -6 82 -6 22
-14 52 -17 67 -3 19 -10 26 -20 22 -21 -8 -32 26 -13 40 11 8 12 19 6 44 -9
35 -19 40 -37 18z"/>
</g>
</svg>
